/* XPM */
static char *Screen_Shot_2024_05_22_at_12_46_54_PM1716367647[] = {
/* columns rows colors chars-per-pixel */
"64 64 80 1 ",
"  c #2C3F62",
". c #2E4365",
"X c #2E4368",
"o c #304366",
"O c #364B67",
"+ c #314569",
"@ c #344A6B",
"# c #3A4E6B",
"$ c #37506F",
"% c #3D546D",
"& c #3F596E",
"* c #374E71",
"= c #3B4F73",
"- c #3D5474",
"; c #3E5578",
": c #40566D",
"> c #42586F",
", c #405476",
"< c #425973",
"1 c #42567A",
"2 c #455B7B",
"3 c #485D7E",
"4 c #4A617E",
"5 c #4C5F82",
"6 c #4C6384",
"7 c #4F6887",
"8 c #4F6789",
"9 c #4F6A8A",
"0 c #516687",
"q c #506887",
"w c #53678A",
"e c #52698A",
"r c #586F8E",
"t c #57708F",
"y c #59718E",
"u c #566F90",
"i c #577290",
"p c #5C7493",
"a c #5E7997",
"s c #5E7698",
"d c #5F7A98",
"f c #667B96",
"g c #647D9B",
"h c #697E9D",
"j c #65809E",
"k c #69839E",
"l c #6783A0",
"z c #6A85A3",
"x c #6C8BA5",
"c c #6E8CA9",
"v c #728AA5",
"b c #7387A8",
"n c #738EAB",
"m c #798EAC",
"M c #6F92AA",
"N c #7392A7",
"B c #7391AB",
"V c #7993AD",
"C c #7D99AF",
"Z c #7C96B2",
"A c #7E9AB4",
"S c #8097B6",
"D c #839CB6",
"F c #899FB7",
"G c #859EB9",
"H c #889DBA",
"J c #85A1B7",
"K c #86A2BB",
"L c #8BA4BD",
"P c #8CA5C1",
"I c #8EA9C3",
"U c #93A6C4",
"Y c #92ACC5",
"T c #97AECB",
"R c #95B1C6",
"E c #96B1C9",
"W c #9BB5CD",
"Q c #9CB8CD",
"! c #9EB7D0",
"~ c #9CB8D0",
/* pixels */
"ooo o   . .  .        ......X......ooo.o..   ..  ..  .  .. .....",
"ooooovmmNcBNmmmmmmZnZzlzjkkjkzjklli..o .5NnnnmnmmmNnnVmmxjzlllll",
"ooooOVFFHDFDDDDDDHDDZcncvMMMMncnMBa.oooo7KDGFDFFDDDDHSDHVcMcnccc",
"o oSLEEJDDDVNyrrieryuuuuyertyerrte962o6UYWTJFDCNhrrrrrrruuuuuuuu",
"oooLQQEJDDHNceeww999ewww99eeeweewwee3.6QQWYGDSZnfwwwwwwwwwwww9ww",
"ooOLWFZBVpyyrewwwe87wwww00wwwwwwwwww3.qQIZVBxirurwwwwwwwwwwwwwww",
"oooLWCnnneqqwwwwwewwwwwwwwwwwwwwwwww3o6QIMBBje9wqwwwwwwwwwwwwwww",
"oooSJNcir9wwwwwwwwwwwwwwwwwwwwwwwwww5o3JAMzee0wwwwwwwwwwwwwwwwww",
"o.+BJBMe98wwwwwwwwwwwwwwwwwwwwwwwwe05.3DAMlewwewwwwwwwwwwwwwwwww",
"..XxBBceqqewwwwwwwwwwwwwwwwwwwwwww6<%o2NBBle0w9wwwwwwwwwwwwwweww",
"++XzMcbr0eqwwwwwwwwwwwwwwwwwwwwwqq4&#.2Bnnje09ewwwwwwwwwwwwweqew",
"ooXzBir00e0wwwwwwwwwwwwwwwwwwww06-&&#X2njeqe0eewwwwwwwwwwwww0e0w",
".oozcuwwwww0wwwwwwwwwwwwwwwwqqqq6:::#o2nj70www00w0ee0wwwwwwwwwe0",
"oo @@6w0wew9eeeew09w9wwwwwww6::<<:#oooo@;ee0ee88ww088wwwwww0ww0u",
"ooooX508888668888888888688886%&&%%#.oooo-8868888880800688668688w",
"o.oooo .XXXXX...oo ...oX XXX...o..ooo..o...XXXXX XXX+ XXooooo X ",
"+@@@@@@@@@@@@X@@@@+oooXXX@@@@@@@@@@@@@@@@@@@X*@@@@@+@+@.o+oo+@@*",
"SSAAAnxzxxxxxxxxxxhooX.o-ZAASASADSSASSSDmxcxxxxcxxzczc8.o.o.sSAA",
"AAAADnxxxxMcxxxcccg@+oo-5DJDHDDDAAAAADAAZcccccccxxcxvn9+..@#kKHH",
"wrereeeeeeew9t9e999w0o-TEWEDHDABxeerreeuuw9u9ew9eeeeeeq0;.gEEWID",
"w9wweee9wwwwe0ewww006X-WQERDSAZcleeewwww98wwwww9eeeew9ww;.kQWELD",
"wwwwewwwwwwwwwwwwwww0o-WEBBBceeuwewwwwwwwwwwwwwweewww0ww;.kQKNNV",
"wwwwwwwwwwwwwwwwwwwwqo-EYBMczw9wwwwwwwwwwwwwwwwrewwewwww;.hEJNMc",
"wwwwwwwwwwwwwwwwwwww0+#HDnxe9wweeewwwwwwwwwwwwwwwwwwwwwe;.sDZNdw",
"wwwwwwwwwwwwwwww0ww06o*HAnxw0wwe99wwwwwwwwwwwwwwwww0qwq4-.sDVBde",
"wwwwwwwwwwwwwwwwww8-<o*BNnxqwwwe9w8wwwwwwwwwwwwwwwwwwq4&O.9VMMae",
"wwwwwewwwwwwwwwwe64:%o*NBxkewww09w8wwwwwwwwwwwwwww00q02:O.eBczse",
"wwwwwwwwewwwee0qq-&&&.*Bxqeqwwwwwwwwwwwwwwwwwwwww0qq3%:%O.eBd9qe",
"wwwwwwwwwwwee8664:-%#o%jj7eqwwwwww88wwwwwwwwwww006662%%%@.6zpe0e",
"www9wwwwwww86<%<&:%Xo...@qwwwwwwwww8wwww0ewwwwe03<::%&#.o...20w0",
"5656555566555-%%%%#oooo.O55603066666668555666666<%%#%%@+ooX.,565",
"XXXXXXX.XXXXo.ooXo+ooooo..o.o. ...... .X.....X..X++oo+ooo+++oooo",
"ooooo;;22,;1;22,2,22,--;;;-;-;-;;-* ++oo@5;;1,2222122212=--;*;--",
"+o.ooVDKHLKPJJHGHHHHGnBnBnBmnBnBBng  + o0HHHHHDJGGHHHHHHZnBBBMnn",
".+o36DLDDDAAZVVVNVBVmzzzzzzxbzxxzxs*+.*5fPLDDDDAABBZVVVVvzzxzzzz",
"o.+PWQ~KDDKBctwwweeee98ueeeeeeww9ww93owW~~YHDHABge09wwwweeeew999",
"o++U~YYADBBbzuwwwwwwwwwwwwwwwwwwwwww5.qWEYPAAnnzsqwwwwwwuwwwwwww",
"o +U~CMBBe99wwwwwwwwwwwwwwwwwwwwwwww3.qWIBBMl80weewwwwwwwwwwwwww",
"oo+LRVBzzewwwwwwwwwwwwwwwwewwwwwww003+8TPBczs0ww0wwwwwwwwwwwwwww",
"oooZAVce98wwwwwwwwwwwwwwwwwwwwwwwwq93.3HAnl000wwwwwwwwwwwwwwwwww",
"o+XBABBe0ewwewwwwwwwwwwwwwwwwwwwww082.2DZcz9wwwwwwwwwwwwwwwwwwww",
"ooXbBBciwewwwwwwwwwwwwwwwwwwwwwwww6-%.2nnnl9wwwwwwwwwwwwwwwwwwww",
"o ozBzleewwwwwwwwwwwwwwrwww0wwww852&#o3nchs8wwwwwwwwwwwwwwwwwwww",
"ooozcie0eww0wwwwwwwwwwwwwww0wwww6%&&#.3bj8q9wwwwwwwwwwwwwwwwwwww",
"oo+raeew8890w098wwe000w08qeeq4462&%#Oo:pi80wwwwwwwww88e00ww0w0e8",
" oo.X6ww897ew007w0e0wwwweeq06&%;&&-oo o -e0wwwwwwweww98eewwww80w",
"ooo.+15222232222232322233222<#####O oooo@23251222;32222222222123",
"oo.XoX..XXX..XXXXX.XXooo..+o+o.. .oooooo.. .....X.XX...... .o..o",
"wwqwe66666666666862... o#q0090087eee77ee86464666466666-.X.oo<eew",
"HDDKDBnBBcBMMMNMMMzXoooo,HHDDGDHJDHHKHHDCvBMBBnBNNNNNn8... ofHHH",
"xvvvblghjjjjjjjjlgs;-o@pfLPHGGGAVvbbvvvbzjjhgjhhjjjjjh7-oo3rZIKD",
"09ee9w9uwwe89999weww8.-~!!EDHKABze000008eqee89wwq7ee0eqe,.z!QQYH",
"8eeewwwwwwww8wwwwwww8.-~WJKAZzlgse00www80wwwwwww0wwwwwww-ojQIKJC",
"00wwwwwwwwww0wwwwwww0X-~ENBBxe9ee08wwwwwwwwwwwwwwwwwwwww-okQKNBn",
"wwwwwwwwwwwwwwwwwwweeX-UPBnjg888wwwww0wwwwwwwwwwwwwwwwww-ofIANlj",
"wwwwwwwwwwwwwwwwwewe0X*HSNx78088wwe8wwwuwwwwwwwwwwwwwwww-opJANjq",
"wwwwwwwwwwwuwwwwwwq23o-AZBzew889ww999wwwwwwwwwwwwwww0e63$oiAVBd9",
"wwwwwwwewwwwwwwwwq0:%o*BMBc0w89wwww9wwwwwwwwwwwwwww0wq3:$.eNBBd8",
"wwwwwwwwwwwwwwwwq22%%o%ncgs8989wwwwwww0wwwwwwwwww0qq63<:OX9Mlgy9",
"wwwwwwwwwwwwwuwwq:&&% $Nx9098wwwwwwwwwwwwwwwwwwww0q93&::oX9Md900",
"wwwwwwwwwwwww522<>&OO.O690778wwwwwwww9889099080q6324<&#@@o;890ww",
"wwwwwwwwwwwq8,:%::%o.o.o@qwwwwwwwwwwwwww00wweeeq3&%%:,Oooo.o2www",
"111,,-;;,----#O##@@oo.o.o;;;;-;;,,11,1;;11,1;,;;$@OO@@@oo oo*111",
"  +  .............o.X.o........ X  +  oX ...........XX  +X. oo o"
};
