/* XPM */
static char *brick641716366482[] = {
/* columns rows colors chars-per-pixel */
"64 64 111 2 ",
"   c #762E05",
".  c #792E05",
"X  c #762F08",
"o  c #792F08",
"O  c #763005",
"+  c #7C3106",
"@  c #7C3109",
"#  c #802F04",
"$  c #823206",
"%  c #8B3907",
"&  c #84350B",
"*  c #88360D",
"=  c #85380C",
"-  c #8D3B0C",
";  c #923E0D",
":  c #9B3E0B",
">  c #863710",
",  c #863A10",
"<  c #8D3D12",
"1  c #8D3F18",
"2  c #933E11",
"3  c #8D400C",
"4  c #94400D",
"5  c #9E440D",
"6  c #8E4115",
"7  c #8F4218",
"8  c #964212",
"9  c #9D4511",
"0  c #904118",
"q  c #964818",
"w  c #A1440C",
"e  c #A6490C",
"r  c #A94A0D",
"t  c #A64910",
"y  c #AD4E12",
"u  c #AB4E1A",
"i  c #B14E12",
"p  c #AE5013",
"a  c #A7511E",
"s  c #AC511B",
"d  c #B35315",
"f  c #BA5816",
"g  c #B5561A",
"h  c #B9561A",
"j  c #B6581A",
"k  c #BD5A1D",
"l  c #A45122",
"z  c #AE5626",
"x  c #B55420",
"c  c #BE5A21",
"v  c #B45E2B",
"b  c #B95F2B",
"n  c #BF6026",
"m  c #BD642C",
"M  c #B56233",
"N  c #BC6534",
"B  c #BB6835",
"V  c #BD6639",
"C  c #BE6A3B",
"Z  c #C05A1B",
"A  c #C45F22",
"S  c #C36124",
"D  c #C86627",
"F  c #C5652A",
"G  c #C86629",
"H  c #CE6A2F",
"J  c #D0692F",
"K  c #CE6B31",
"L  c #C66E3D",
"P  c #CA6E3E",
"I  c #D16E34",
"U  c #D26F38",
"Y  c #C5703E",
"T  c #CA723F",
"R  c #D37035",
"E  c #D5743B",
"W  c #D9763B",
"Q  c #D9783D",
"!  c #C76F41",
"~  c #C86D40",
"^  c #C77140",
"/  c #C87042",
"(  c #D27741",
")  c #DA7740",
"_  c #DC7B41",
"`  c #D57C4B",
"'  c #DA7F4D",
"]  c #D97D50",
"[  c #E37F46",
"{  c #E17F4A",
"}  c #DE8043",
"|  c #DB814D",
" . c #E28147",
".. c #E4844D",
"X. c #EA854F",
"o. c #EB8A4F",
"O. c #E28553",
"+. c #EB8651",
"@. c #E68B56",
"#. c #EC8B54",
"$. c #E78B5A",
"%. c #EB8C5A",
"&. c #F18E53",
"*. c #F18F5B",
"=. c #ED9057",
"-. c #ED9059",
";. c #F49156",
":. c #F3925C",
">. c #F59361",
",. c #F89760",
"<. c #F69865",
/* pixels */
"X , ' :.:.:.>.>.>.>.>.:.>.>.>.>.>.>.>.>.:.>.<.2 . . N *.-.>.>.:.:.<.>.<.>.<.-.>.>.>.>.,.<.>.>.q X . - %.>.>.-.:.>.:.:.:.:.>.:.<.",
". * ] :.:.:.:.:.:.:.:.:.:.:.:.:.:.:.:.-.-.:.>.< . . N *.>.:.-.:.:.-.;.;.;.:.:.-.;.:.:.-.:.:.:.8   X 6 %.>.-.:.:.:.-.:.:.:.:.:.-.",
". < | >.:.%._ Q _ _ _ _ _ Q _ _ _ _ ) E R U ( * X . N *.>.%._ _ } } Q  .Q } } } _ Q _ _ E E P - O O 6 #.>.:.X.Q _ _ _ Q Q Q } } ",
"X , | -.:.' k k Z Z Z Z Z Z Z k Z Z Z y 5 5 9 #     N *.:.+.F k k k Z Z Z Z Z f Z Z k g w 5 5 $ O O - %.:.-.I k c Z k Z Z k k k ",
"  * | -.>. .k k k k k k Z k k k k k k r 5 9 9 #     N %.>.+.A c A k k k k k k k k k k g e 5 5 $ X O - -.>.:.I k c k k k k Z Z k ",
"  * ] :.>. .x c k k c c k k c k c c k y w w 9 +     N *.>.+.A k k c c k k A c c A k c g w 5 5 $ X O < %.>.-.K k h c k A c Z c c ",
"  $ s g x g e e t e e e e t e e e r e w w w w +     8 x x g y e e e e e r r r r r e e e 5 5 5 $ O O + s x g t e e e t e e e t r ",
"  O 4 w 5 5 5 5 9 9 9 5 5 5 5 5 w 5 5 5 5 9 w .     % 5 w 5 5 5 5 5 5 5 5 5 5 5 5 5 5 5 5 5 5 $   X + 5 5 5 8 9 : 5 5 w 5 5 5 9 ",
"X @ 4 5 5 w 5 5 5 5 5 5 5 5 5 w 5 5 5 5 5 5 9 + . . % 5 5 5 5 5 5 5 5 5 5 5 5 5 5 5 5 5 5 5 5 $ .   # 8 5 5 5 9 9 w w : w w : w ",
"  . % ; - - ; ; ; 3 - ; ; ; - ; ; ; ; ; - - * . . O & - % - - ; 4 ; 4 - ; ; ; - 4 ; 4 - ; - - +   . . - - - ; - - ; - - ; - ; - ",
"O O + . O + O O O X . X O . @ . . . . . . .             + O .   . . O O . .   . . . O O . O O .   O . . O . . O   . .   . .   O ",
"  O O . O . X X O O O X .     X . X o . o X         X o o . .   X   . .       . @ O . O o @ . X X X . X o @ o X X     X   .   O ",
"& & = = = = = = * . . + . . . . & & & & & & * = & = = > = = = & % $ $ + @ . X   @ * * & & & & * * & * & * * * & * $ . o O . . O ",
"@.#.@.#.%.#.#.-.@.u 5 5 - . O = ] $.+.%.#.@.@.#.@.#.@.$.$.$.%.%.%.b 4 4 ; $ . + M %.@.%.%.%.%.@.#.@.%.+.$.@.@.@.$.( 5 : 5 .   O ",
":.;.;.:.*.#.:.:.:.u w 5 ; . X , O.>.:.;.:.:.:.:.:.:.-.:.:.;.=.;.:.m 5 5 : $ . O N >.-.:.*.:.:.:.:.:.-.:.-.:.:.-.:._ w 5 5 + O . ",
";.:.:.:.:.:.:.:.:.p 5 5 - . . = O.:.>.:.:.:.;.;.:.;.:.:.:.:.;.:.,.F 5 5 ; +   + N >.>.:.*.;.:.;.:.:.:.:.:.:.:.:.:._ 5 w w + . O ",
"Q Q Q Q Q W E W W r 5 5 4 O   $ O.:.:.X.Q E E Q Q Q Q W W W W Q Q j 5 5 ; $ X @ V >.:.*._ Q Q Q E E Q Q Q Q Q Q } D 5 5 5 & . . ",
"f k k k Z A k k h e w 5 -   O % O.:.;.R c k k Z Z Z Z k k k k k Z r 5 5 : + . + V :.*.#.c c Z k k k f f f Z f f j d w 5 9 . . o ",
"f f f k k k k k Z e 5 5 3 O   & @.:.;.R k k f f f f f f k f k k k p 5 5 ; + X + V >.:.#.c k k f k k k f Z f Z Z k j 5 5 w . o o ",
"k k Z Z k k k f k e w w ;     = O.:.:.R Z k k Z k k Z k k k k k k r 5 5 : $ . + L ,.:.#.k k k k Z k Z Z k k f Z k j w 5 w # . X ",
"k k k k k k k Z f e w 5 ;   X = +.:.:.R A k k k f Z k k f k k Z n p 5 5 ; $ . + N >.*.&.k k k k k k k k Z k k k A g w 5 9 o o . ",
"k k k k k k k Z Z e w 5 ;   . = $.:.:.U k k k k k k k f k k k k k p 5 5 ; $ . + V *.:.+.k k k k k k k k k k k k h d w w 9 $ . . ",
"k k k k k k k k Z e 5 5 -     & O.:.:.U c c f Z k k f k f k k k k r 5 5 ; $ . + V >.>.&.c c k Z k Z k Z Z Z k Z k g w 5 5 $ . X ",
"p p p p p p y d y w w 5 ;   X & m K K c y y i y p d p y p d y y p e 5 5 ; # X . l K P F y p p p p p p p p p p p i t w 5 5 . o X ",
"w w w 5 w 5 5 5 w 5 5 w ;     # ; w w w w w 5 w 5 5 w w w w w w w 5 5 5 4 . . . - w 5 w 5 w 5 5 5 5 5 w 5 5 5 5 w w w w 5 + . X ",
"5 5 5 5 w w 5 w w 5 5 5 ;   . . 5 5 5 5 5 w 5 5 5 w w 5 w w 5 9 5 5 5 5 4 $ . . % 5 5 5 5 5 5 w 5 w w w 5 w 5 5 5 w w 5 5 O X O ",
"4 4 4 4 5 ; 4 ; : 2 8 ; % . . . ; 4 ; 4 4 2 4 4 2 2 ; 2 2 ; ; 4 4 4 4 ; - $ . . = 4 ; 2 4 4 4 4 ; 2 2 2 ; 8 5 2 2 2 2 : ; O X X ",
"+ $ $ $ . # $ $ + $ @ @ . .   . @ @ @ + @ $ + O # . $ # $ @ $ O $ + + $ # . . + + + + @ + + + + @ + + @ @ + + + o . $ @ + .   O ",
"  . X X   X X   X X . . X X o X X X . X O X O O X X X . . X O O O O . X . . . O O O O .   . O X . O O O O O O O O O O . O O O + ",
"  . . O O . @ + O + . . . . . . O @ . o . O O O     O O + O O O O O O . O O O . O O @ + O .   X . O . O @ O O O + O + O O O O @ ",
"  = M Y L P / P P ~ P ~ P P P P L L L l ; - - + .   a L L Y Y Y L L L L L L P P / ^ ! N % % - .     % L ^ ^ Y ^ T L ~ ^ L T T T ",
"  % ' :.:.:.:.>.:.:.>.>.>.,.>.>.>.>.:.F 5 5 5 $   . N %.;.:.:.;.;.;.:.:.:.:.:.:.:.:.>.#.e e 5 #     < %.>.>.:.:.:.:.>.:.:.:.:.:.",
"X > ' :.:.:.:.:.:.:.:.:.;.;.:.;.:.:.;.n 5 5 5 $     N >.-.:.;.;.:.:.:.:.;.;.:.;.:.:.;.o.w 5 5 $ O O ; #.>.:.:.=.;.;.;.-.;.;.:.;.",
"  > O.:.:.*.&.&.#.=.#.=.=.&.&.#.&.#.#.n 5 5 5 +     V -.;.:.;.#.o.=.o.;.;.&.o.;.;.#.=. .w 5 5 $ O O 2 -.:.:.-.=.o.=.=.=.=.o.#.-.",
"X = ' >.:.X.S G D D D D D D D D D D G d 5 5 5 $   . N -.:.#.I H D G G G G G D G G G F n 5 5 5 $ O O 2 -.;.:.E F F D G D G G F F ",
"O , ] *.:.[ k k k k k k k k k k k k c r 5 5 5 +   . N :.-.#.S Z Z Z k k k k k k k k c j 5 w 5 $ X O < %.:.:.I c k k k k k k k k ",
". , | :.>.[ k k Z k k k Z k k Z k k k r w 5 5 +   . N %.:.+.A Z Z f k k k k k k k k k j 5 w 5 $ . O - -.:.:.I k c Z k k Z k k f ",
". , ' >.,...k Z Z k k Z k Z k k k k k i 5 5 5 +   . N *.:.+.A Z Z Z k k Z k k Z k k k j w 5 5 $ . O < -.;.:.U k k k k Z k k k k ",
"X , ' :.>. .f Z Z Z k Z k f Z Z Z Z k r 5 5 5 + . . N *.:.+.A Z Z Z Z Z Z Z k k k k k f e 5 5 $ . o - %.:.-.T c A f f Z Z Z Z k ",
"X , ' :.:. .k k k k k k k k k k Z k k i 5 5 5 +     N :.:.+.A k k k k k k c k k k k k f w 5 5 $ . X < -.:.:.U c A k A k k k k k ",
"  & T X.O.E g g g g g d k g g h k g d r w 5 5 +   . v  .X._ c g k k g g d k g g g h g d 5 5 5 $   . - | ....F f g g g g d h g g ",
". o ; 5 5 5 5 w w w 5 5 5 5 5 w w w w w w 5 5 + . . % : 5 : 5 5 5 5 5 w w 5 5 5 5 5 5 5 5 5 5 $ . + $ 4 : 5 9 5 5 w w w w w 5 5 ",
". + 4 5 5 9 w w 5 w 5 5 5 5 5 w w 5 w 5 w w 9 +   . = 5 5 5 5 5 5 5 w w w w 5 5 w 5 5 5 5 5 5 $   . $ 9 5 5 5 5 5 w 5 w w 5 5 5 ",
". + 4 5 5 5 5 5 5 5 5 5 5 5 5 5 5 5 5 5 9 5 9 + X . = 5 5 5 5 5 5 5 5 5 9 9 5 5 5 5 5 5 5 9 8 & . . + 8 5 5 5 5 5 5 9 9 5 5 5 5 ",
"  . + & @ & & & $ * $ & & & $ & + & & & & & $ O X . + $ & & & * & & & & & & & & & & & & & & & O . . . & * & $ & $ * % & & % $ & ",
"  . . X O O   X . X O X X X X . X     O O X O X . O     .   X . . X . X . X X .   X . X o X O O O . . X X . O O X . . X O O   O ",
"    . o . X X   o X @ o X . O O . O O O O O O O . O . . . . O @ X X O O X O O O . X X @ X X X O O O     . X X O O O O O     X   ",
"1 < 2 1 < 2 6 7 7 $ @ @ @ . O O , 6 < 6 3 6 7 7 0 6 3 6 0 2 0 0 7 0 0 6 , @ O O > 7 < < 7 < < 6 6 6 6 6 < < 7 < 7 = $ + O . X X ",
"%.%.%.+.%.#.%.@.@.u 4 5 * . . & ] %.%.$.%.%.%.%.%.%.%.%.*.%.%.%.%.%.$.$.` ; . @ M %.%.%.%.&.*.%.#.%.%.%.*.%.%.%.%.( : 5 : o .   ",
">.*.>.>.;.:.:.;.*.y 5 5 4 . @ % O.*.>.*.*.*.*.:.*.*.*.*.:.:.*.:.*.>.:.:.| ; X @ N :.:.:.*.*.*.*.:.:.;.*.:.:.;.:.:.Q w w w $ .   ",
":.:.:.:.:.:.:.:.:.y 5 5 ; . . = +.*.>.>.*.*.:.:.:.;.;.:.:.;.:.*.>.:.:.:.' ; o o C >.:.:.:.;.:.*.:.:.:.:.:.:.:.:.:._ w w 5 +   X ",
"J J H H H J K I H e 5 5 ; . . * O.*.:.W I J I J J J J J J J J I J A j k s $ . o C >.:.&.H J J J J J J J J J J K J S w : 9 + .   ",
"Z Z Z k k k c k k e 5 5 4 . . % O.*.:.U k k Z f Z k c k c k k c A y : w : . . # V >.:.%.c k k k Z k k k c k k c k d 5 5 5 @ O O ",
"Z Z Z k k k k Z f e 5 5 - O . * O.:.:.U k k k k Z f k Z k Z k k c y : w 4 $ . . V :.:.#.c Z k Z k Z Z k k Z k Z k d w 5 9 @   O ",
"Z Z Z Z k k k Z k e 5 5 ; . . * O.:.:.I c k c k Z k k Z k Z c k k y w w 4 $ X + V :.:.#.c f k k k k Z k k Z k k k d 5 5 5 +   X ",
"Z Z Z Z Z k k Z k e 5 5 4 O X * O.:.*.U c c k k c c Z f k k c k k y w w : . . + B :.:.#.c k k k c k k k k k k k Z d 5 5 5 $     ",
"h A k A k c k k k r 5 5 4     % $.*.*.U k k k c c k k k k k k k k y w w : # . @ B ;.>.%.k k c c k k k k Z Z k c k d 5 5 5 $   X ",
"k Z x c c c c c c r 5 5 4 O O & +.*.:.U c k k k k k k k c c j k c y 9 w 2 # . . B :.-.%.x k c k k k k h k x k k k d 5 5 5 . . X ",
"t t e e w e e e e 5 5 5 %     = O.:.*.F w w e e w e e w e w e e w w w w : # X . 4 s s u e e e e e e e e w e e e e w w w 5 $ .   ",
"w w w w w w 5 5 9 5 5 5 4   X % O.:.:.F w w w w 5 5 5 5 5 5 5 w 9 5 w w ; # . . - 5 5 5 w 5 w w w 5 5 5 w 5 w w w 5 w 5 5 .     ",
"w 5 5 5 w 5 w 5 5 5 5 w 4 . . = O.:.:.A 5 5 5 5 5 w 5 5 w 5 w w w 5 5 w : # . . % 5 5 5 5 5 5 5 w 5 5 w 5 5 5 5 w 5 5 5 5 $ .   ",
"; ; ; ; 4 4 4 4 4 4 2 : % + O $ ! ` ` z : : 4 4 ; 4 4 4 4 ; % 4 4 4 4 4 - .   . % 4 4 4 4 4 4 4 ; ; 4 ; 8 ; ; 5 2 4 2 4 4 O . X ",
"@ O + + @ + $ @ @ $ $ + . . . . * , = + O + + $ + + + + + + # . + + + + .       O + + + + + + + $ @ + O @ $ o $ + @ @ + O   . O ",
"O O X O O X . O O X O O O O O . O O O O . O   . O O   .   X .     .             O O O O O O X O X O O O O . o . . O O O @   O O "
};
