/* XPM */
static char *diamond641716366482[] = {
/* columns rows colors chars-per-pixel */
"64 64 188 2 ",
"   c #19B6C5",
".  c #16BFCB",
"X  c #18BDD0",
"o  c #22BCC6",
"O  c #15C2CC",
"+  c #1AC3CD",
"@  c #13C8CF",
"#  c #0FCAD6",
"$  c #0FCBDA",
"%  c #15C6D4",
"&  c #1AC5D3",
"*  c #12C9D6",
"=  c #1BCAD5",
"-  c #14C7D9",
";  c #18C6D8",
":  c #12C9DA",
">  c #1CCCDA",
",  c #1ED0DE",
"<  c #22C1C5",
"1  c #23C4CD",
"2  c #28C2CC",
"3  c #28CACF",
"4  c #32CCCE",
"5  c #24C6D2",
"6  c #2AC7D0",
"7  c #24CBD5",
"8  c #2BCCD5",
"9  c #26C5D8",
"0  c #24CEDA",
"q  c #2BCEDB",
"w  c #33CCD5",
"e  c #3ACCD5",
"r  c #33CEDA",
"t  c #39CBD8",
"y  c #23D0D6",
"u  c #29D1D7",
"i  c #24D2DC",
"p  c #2BD1DC",
"a  c #33D1D4",
"s  c #39D0D7",
"d  c #33D3DD",
"f  c #3CD4DB",
"g  c #36DADF",
"h  c #3ADADF",
"j  c #1ED1E0",
"k  c #2ACFE2",
"l  c #26D2E1",
"z  c #2BD3E2",
"x  c #2EDCE4",
"c  c #35D6E2",
"v  c #3CD7E3",
"b  c #35D9E3",
"n  c #3BDBE4",
"m  c #34DAE9",
"M  c #3FDDE8",
"N  c #42CDDC",
"B  c #4FCFDA",
"V  c #58CDD7",
"C  c #40D1D6",
"Z  c #4DD2D7",
"A  c #43D4DC",
"S  c #4CD4DC",
"D  c #42D9DE",
"F  c #4BD8DF",
"G  c #53D4DC",
"H  c #5FD6DC",
"J  c #53D8DE",
"K  c #6FD0D6",
"L  c #63D7DD",
"P  c #6DD6DB",
"I  c #63D9DB",
"U  c #74DCDF",
"Y  c #41D7E1",
"T  c #4DD6E1",
"R  c #43DCE4",
"E  c #4CDBE3",
"W  c #44DEE9",
"Q  c #4ADEE8",
"!  c #51D6E2",
"~  c #53DCE4",
"^  c #5BDDE3",
"/  c #6BD6E0",
"(  c #63DDE4",
")  c #6ADEE4",
"_  c #76DFE2",
"`  c #7ADDE2",
"'  c #44E3E6",
"]  c #49E1E6",
"[  c #45E2EA",
"{  c #4CE3EC",
"}  c #54E2E7",
"|  c #5CE2E6",
" . c #53E4EC",
".. c #5CE5EC",
"X. c #52EAED",
"o. c #5BE9ED",
"O. c #4DE6F1",
"+. c #51E4F1",
"@. c #5AE6F1",
"#. c #53E9F1",
"$. c #5CEBF2",
"%. c #6BE1E5",
"&. c #65E4E9",
"*. c #6CE5EC",
"=. c #64EBEE",
"-. c #6CECEE",
";. c #74E3E5",
":. c #7CE2E5",
">. c #74E5EB",
",. c #7BE6EA",
"<. c #75EDEE",
"1. c #7CEEEE",
"2. c #77F2EF",
"3. c #7BF0EF",
"4. c #61E6F0",
"5. c #65ECF2",
"6. c #6AEDF2",
"7. c #73EEF3",
"8. c #7CEFF2",
"9. c #74EEF9",
"0. c #7DEDF8",
"q. c #66F1F6",
"w. c #6EF2F5",
"e. c #64F1F9",
"r. c #6CF2F9",
"t. c #6CF8F9",
"y. c #75F2F4",
"u. c #7BF0F1",
"i. c #75F3F9",
"p. c #7AF3F9",
"a. c #82DEE4",
"s. c #84E4E6",
"d. c #89E7E7",
"f. c #83E5EB",
"g. c #83EDEE",
"h. c #8AEDEE",
"j. c #92E7EC",
"k. c #93EDEF",
"l. c #9BECEE",
"z. c #84F1EE",
"x. c #88F1ED",
"c. c #95F0EF",
"v. c #83EDF1",
"b. c #8AEEF2",
"n. c #94EEF3",
"m. c #9CEEF3",
"M. c #84F1F3",
"N. c #8BF1F4",
"B. c #84F1F8",
"V. c #8CF3F8",
"C. c #94F2F5",
"Z. c #9CF3F5",
"A. c #91F2F8",
"S. c #9DF4F9",
"D. c #93FBFE",
"F. c #9DF9FD",
"G. c #A2F1EE",
"H. c #A2EEF4",
"J. c #AEEFF1",
"K. c #A2F3F5",
"L. c #ABF3F5",
"P. c #A6F8F6",
"I. c #A4F6FA",
"U. c #AAF6FB",
"Y. c #A4F9FC",
"T. c #ABF9FC",
"R. c #B4F5F6",
"E. c #BBF6F6",
"W. c #B2F9F7",
"Q. c #BAF8F7",
"!. c #B4F6FB",
"~. c #BAF6FA",
"^. c #B4F9FC",
"/. c #BAF9FB",
"(. c #C4F6F7",
"). c #CCF7F7",
"_. c #C0F8F7",
"`. c #CCF8F7",
"'. c #C3F5F9",
"]. c #CAF7FA",
"[. c #C4FAFC",
"{. c #CCFCFC",
"}. c #D0F7F6",
"|. c #D0F7FC",
" X c #D3FDFD",
".X c #DCFDFE",
"XX c #E1FDFE",
"oX c #E9FEFE",
/* pixels */
"L.H.Z.K.Z.K.G.K.G.Z.^ B S ! Z.G.Z.^ S Z s..XoX.XL.G.K.Z.K.K.N.( S B s.[.).}.XXoXoXoXoXoXXX}.(.'.f.Z Z P .XoXoXoXoXoX.X|.`.`.].`.",
"h.1.1.1.z.3.,.3.8.8.0 * * = y.M.0.k * % | ].XX Xc.z.1.g.u.g.6.q * % J ^.E.'..XXXXXXXXXXX.X(.!.!.~ % & e  XXX.XXXXXXX X'./.E.E.Q.",
"h.3.1.3.u.u.u.u.u.7.i * * > i.M.i.q - * ^ {.XX Xc.8.u.u.1.u.5.p % % J /.~.'..XXXXXXXXX.X.X~.Q.!.E % % t  X.XXXXXXXXX.X'./.~.~./.",
"h.u.3.u.u.y.7.] ' M j $ # : M [ ' Q E ~ f._. X/.h.u.u.z.8.1.7.R b b Q &.%.:._.`.).|.|.|.'.L.S.S.&.h h R ;.;.:.J..X.X X'.~.R.I.K.",
"h.3.u.u.u.y.5.= % : $ $ $ $ > : + 7.U.U.!.~./.!.N.u.u.3.1.8.7.7.w.y.] = = w Y.E.E.~.~.~.Q.k.1.v.y.7.y.=.1 5 1 U  X.X.X'.~./.m.v.",
"h.u.u.u.u.0.$.: : $ : : : $ * : . g.~./.~.~.~.!.b.u.3.3.u.3.u.8.8.y.{ : % 0 Y.E.!.E.~.~.^.M.3.1.u.u.u.=.% * % )  XXX X~.E.!.S.8.",
"h.u.3.u.u.p.$.; % % - % % % : : . 8././.!.!./.T.b.8.3.3.u.3.u.u.y.y.[ % * y D.^.!.!.^.^.U.v.8.8.9.u.p.5.+ % O )  XXX XE.!.^.C.8.",
"h.3.u.Y b c h ( %.%.%.%.%.} * * . v.~.!.U.m.c.C.v.u.3.3.1.u.6.Q b b i - * * Y Q E >.C.C.V.8.8.y. .f b R :.s.a.H.'.].Q.S.C.C.N.8.",
"h.3.u.8 * % w Y.^.^.^.^.T.N.& : . v./.!.I.v.1.3.3.3.u.1.M.u.5.u % @ * : : % % & % Y u.8.3.8.8.7.b % % w {..X X[.'.~.U.v.v.1.1.1.",
"g.y.9.i * * w U.^.Q.R.E.^.N.; - O z.!.!.S.8.3.1.3.3.3.3.8.3.5.y # * * * : % : : : n i.3.<.8.3.w.x * % r {.XXXX].~.!.P.M.3.3.u.u.",
"(  . .Y f A J S.I.I.I.I.I.M.d c d | <.1.<.3.u.3.1.u.3.6. .} } E E ! T S E Y v v A R X.}  . . .{ l $ * 8 [. X XQ.U.H.b.| } } }  .",
"2 ; & M.I.F.S.v.g.v.v.v.v.g.-.7.r.p & + D 1.M.1.3.3.9...= % w N.{.[.[.{.[.[.U.I.I.=.& % = : > % - # * 8 !./.E.Z.b.v.5.8 & @ * & ",
"1 $ * C.!.!.U.v.1.8.8.3.8.3.u.7.i.u : : b y.1.3.1.3.3.{ * * 8 S..X.X.XXXXX X~./.E.5.* : : : : # : # * 7 T.Q.!.S.M.8.@.> : * * $ ",
"< O O C.!.!.U.v.v.0.8.u.1.u.3.7.i.i * % b r.u.y.p.p.p.{ % * u S.XXXXXX.X.X.XE././.*.& % - - % * - : * = U.Q.R.S.y.i.$.> * % * * ",
"h.v.g.g.h.n.N.v.8.8.8.u.8.2.u.8.i.i : - > q y p q i p , : - q S..XXX X].'.~.n.b.b.9.o.+. .o.X.+.l * : 7 T./.!.*.d k c { X.X.X.X.",
"'.!.!.v.M.u.u.8.8.0.3.8.u.u.u.8.p.0 : * * : # * # # * : - : 8 S.XX.X].~.~.!.v.8.8.7.8.8.9.8.7.9.m : : 7 T.!.!.| & - p 5.y.8.7.8.",
"'.~.^.v.8.p.u.y.2.7.3.8.8.8.u.0.i.p * # * * * * * * * % : : r S.XXXX|.~.R.T.g.u.u.u.u.u.3.3.2.y.m = - q T.^.T.} = % p 6.u.3.8.3.",
"'.~.R.)  .Q { { { X.7.8.8.7. .{ ] F G Z G ! J F F Y D p : : q A. X X~.K.I.Z.z.u.u.u.3.<.2.3.3.7.] p p c >.>.-.E c c R 7.3.u.u.u.",
"'.~.!.8 % % * % : > 5.y.u.$.% % . k.XXXXXXXX.X.X'.~./.>.> : q B.E.~.S.1.8.3.1.u.2.u.3.u.1.u.3.1.0.p.u.5.& * * n y.u.u.8.u.u.3.u.",
"'.R.!.9 % * * $ : % =.u.u.5.% % . l.XXXXXXXXXX X'.~./.7.: : 0 B.E.E.I.8.u.8.3.u.u.<.8.2.u.3.u.3.8.u.u.5.% : : n w.1.u.8.u.u.3.u.",
"R.T.U.t + & % = - = o.y.t.5.+ & o m.XX.XXX.X X{.E.^.^.7.% : q B.E.^.K.8.u.3.u.3.u.u.3.u.u.u.u.3.8.8.B.5.% - : m r.y.i.y.y.y.7.3.",
"L ! ~ >.,.f.8.*.*.=.Y h c A ,.g.s.!.].].~.L.K.K.Z.C.C.o.% $ q B./.^.K.1.u.1.1.u.3.u.8.2.u.1.2.7.8.3.u.5.% : : j c g c b b g o.u.",
"1 % % H. X.X{.R.!.I.d % % w  X.X.X'.^./.K.v.M.8.1.3.u.O.- : q B./.W.I.8.3.8.8.u.3.7.1.u.u.u.3.u.1.u.u.5.% * - : - - * * * +  .u.",
"5 - ; J..XXX XE.E.T.r : % w  X.X.X'.Q.^.S.v.y.u.3.2.u.+.& - 0 v.^.W.S.0.u.3.u.3.u.2.u.u.u.3.u.u.8.3.p.5.% * - * * - : # # & +.p.",
"e q p Z././._.Q.E.I.k : % a [. X{.R.U.I.C.M.3.3.3.3.u.o.d p d =.g.8.8.0.1.u.1.u.u.<.u.u.u.3.3.3.1.8.u.5.% $ : 0 f N A f f f ] $.",
"v.y.u.8.z.z.c.^./.I.r : * 7 T././.n.v.v.u.3.3.u.M.3.g.y.u.y.5.i = % A 0.8.3.3.u.3.u.3.u.3.u.u.u.8.8.p.5.% : - | [. X[.^.T.F.E % ",
"h.u.u.u.M.3.h.!./.I.r - % 7 T.Q.!.b.v.u.u.u.M.u.u.3.u.M.M.1.6.k # % n p.1.3.u.3.3.u.u.u.u.3.3.3.3.u.y.5.% % % %.{.XX X'.Q.T.S % ",
"g.u.u.u.u.3.N.T.T.F.p - * u T.Q.!.N.u.u.u.u.u.3.z.8.z.3.u.1.6.r = = n 5.5.6.u.u.3.7.6.6.5.5.q.6.6.6.6.#.% * % &.{..X XR.^.Y.! 8 ",
"b.3.3.u.1.1.v.N.n.0.i * * 7 T.Q.!.N.u.u.u.u.u.1.u.u.u.2.8.2.7.4.X.O.W z z g y.8.u. .d p z p p c d p d i * : * | !.[.!.m.N.N.8.<.",
"b.u.u.3.1.u.8.1.1.<.i : * 7 T.R.!.N.8.u.8.8.u.3.1.u.3.u.3.8.8.8.u.y.[ - * = e.y.u.W % : : : : : : : : : # # * | ^.R.U.v.8.g.K.E.",
"v.8.u.8.8.M.8.3.3.7.i # : 7 T.W.^.M.3.0.8.u.3.8.u.u.u.u.u.u.2.2.8.u.{ % - = e.y.9.Q % $ % % - : * : : : * * O  .Y.!.I.v.8.v.K./.",
"v.8.1.u.u.1.8.2.2.6.i $ * , *.>.>.<.u.3.u.u.u.3.u.u.<.u.1.u.8.3.1.u...c b n { ] { E ^ ^ ^ ^ ^ ~ T E Q Y v n b  .>.>.>.8.0.8.n.H.",
"g.u.u.u.3.3.8.9.y.7.l : $ : - * + o.1.u.8.u.u.3.u.1.u.3.3.7.u.3.u.u.u.9.u.q.& * * L  X.X.X.X.X X[.^.!.T.1.8.y.M & % i 6.3.3.v.3.",
"h.8.z.u.u.u.u.p.0.7.0 : : $ $ # + X.u.u.8.u.8.u.u.u.3.8.3.u.3.u.u.3.8.y.u.$.* # * I  X.XXXXX.X.X].Q.Q.Y.1.u.y.W * * u 5.3.3.3.3.",
"b.y.p.i.p.p.i.i.i.w.8 O % O O % . X.i.i.y.p.0.3.3.u.3.u.u.3.3.u.3.u.u.y.2.q.@ # % H {..X.X.X.X.X[.^.^.Y.8.8.u.n * * u 6.u.0.y.y.",
"w 0 0 0 0 0 0 7 0 w -.B.N.B.=.$.$.p i 9 Q 7.u.M.u.3.u.1.8.u.u.2.8.3.u.u.2.q.= # : ! !.'./.Z.C.c.N.N.N.M.8.u.y.M * * i 5.3.y.Y q ",
"1 * # - : : - * * 7 b./.!.T.v.8.p.p * : b 7.u.u.8.3.u.u.u.M.1.u.y.3.3.3.u.6.= : - J T.~.^.v.3.u.3.3.u.2.8.3.y.W : % i q.8.r.c - ",
"1 # * : : * : : * = n.~./.U.8.8.p.p - * m 9.v.y.u.u.u.u.u.u.u.u.3.u.u.u.2.q.> : ; ! T./.^.x.u.u.u.3.u.3.3.u.y.M * : i 5.u.i.c % ",
"G A A A A A A A A G b.I.I.K.8.7.p.0 # - z [ { O.O.O.{ O.O.{ { O.O.O.{ O.{ { T B V a.!./.^.M.3.u.u.3.u.u.8.2.u.n = * j [ { { T A ",
"!.U.I.U.U.U.U.I.T.I.v.v.8.g.1.8.i.k $ : : % % % - - = : - % : : * % % : - 6 T. X X'.~.~.T.b.u.u.3.u.u.3.8.8.y.M : : : * : & =.T.",
"'.~.!.E././.~.!.Q.!.g.3.1.8.3.3.i.l : : - * : $ $ $ : $ $ # $ : # * : $ * 6 /.XXXX].E.E.!.g.3.3.3.u.1.8.u.8.y.R * * # $ $ % -./.",
"E.T.T.^.!.!.!.!.T.T.z.3.u.y.6.q.r.a 5 6 5 5 9 5 5 7 9 7 & & = % : * = 7 1 e /. XXX{.^.T.Y.v.u.3.u.u.u.8.6.r.q.R 7 9 5 5 5 2 >.Q.",
"j.v.N.b.g.N.v.v.N.M.u.u.8.=.3 7 1 1.!.L.K.C.C.V.A.A.A.u.q.5.X.i : * E P.L.!.~.'.'.L.b.M.v.v.7.3.u.2.1.7.8 9 8 ^ K.!.K.Z.C.C.U./.",
"f.v.0.u.M.M.u.u.u.u.M.3.7.5.% * . m..X.X`.Q.Q.W.R.E.R.I.g.9.5.u : % H .X.X.X(.~.~.K.3.u.3.u.u.8.3.u.1.5.* : : )  X.X X~.!././.R.",
"h.u.3.u.1.8.u.u.u.u.p.y.i.5.+ *   l.XXXX|.E.!.!.!./.^.S.v.8.6.8 % & ^ .X.X X~.~.~.I.8.1.8.u.3.v.9.8.u.5.O @ X )  XXX X/.^.!.!.!.",
"h.u.u.3.u.3.8.8.3.y.' n M ! I P K J.`.].E.K.S.F.S.Z.S.V.u.u.7.E v A ! &.&.>.T.~./.I.1.8.8.2.1.9...M M R ( / P d.P.W.K.K.Z.S.S.F.",
"h.1.3.u.8.8.u.8.1.6.y % % w {. X X].~.E.K.g.8.8.8.8.8.u.u.8.3.u.7.y.' * O 5 F.~.~.S.v.8.3.u.u.7.b % % 8 {. X.XL.v.1.g.1.1.u.g.g.",
"b.8.7.1.3.8.8.8.2.7.y : % w  XXXXX[.Q.^.Z.v.8.8.8.8.u.u.u.u.7.3.1.u.' * : 8 F.!./.S.8.8.u.u.2.i.x @ % w  XXX.XW.v.u.1.u.0.u.u.u.",
"b.9.i.7.u.i.y.p.y.r.y : # s {..X.X[.!.!.I.8.u.8.u.u.u.u.2.3.u.u.3.y.] - : 9 D.T.T.C.y.7.9.y.y.r.g % * w {..X XL.z.8.0.u.8.u.u.v.",
"t 0 7 0 0 y i 0 0 > : $ * 8 /.(.'.m.N.B.M.8.u.1.8.1.3.u.u.3.u.2.3.u.Q : : : q d r p 0 0 0 i 0 i : $ : > N.C.C.x.u.8.u.u.0.u.u.u.",
"= $ : * # # $ $ : : $ # # 8 T./.!.b.8.0.u.8.g.8.8.8.u.3.g.u.3.u.3.y.Q * * : : : : $ $ $ $ $ $ : * $ $ > i.u.M.3.3.8.0.u.9.8.y.v.",
"1 * - * * # : # # # : : : 8 ^./.!.b.u.u.u.u.3.u.u.3.u.1.u.u.u.u.u.y.[ % * - - : : : : * : $ * * * * * > i.u.u.u.3.3.3.3.8.0.v.y.",
"` ) %.) ) ) ( ^ ^ ] = * * 7 ^.Q.!.V.u.u.3.8.8.u.2.u.3.3.u.3.y.E ' R } ) &.( ( ^ ^ ^ ^ ~ } R n n n M M n R R R o.7.9.6.] R [ R ' ",
" X{.{. X{.{.{.^.T.F.p * * q ^.Q.!.N.u.u.u.u.1.3.u.1.7.u.u.u.q.8 & & ( {.{.{.^.Y.T.T.T.Y.U.u.u.y.y.7.i.$.+ % % M 9.8.5.0 % % * % ",
"XXXXXX.XXX.X XQ.Q.Y.d * % 7 T./.!.N.u.u.u.1.8.3.u.8.2.1.<.3.5.p * % L .X.X.X'.R.~./.R.E.!.v.u.u.u.u.u.=.% - $ n y.u.$.y * * # # ",
".X X.X`.{.{.[.T.T.S.f 0 , a V.A.A.v.u.u.u.u.u.3.u.2.3.y.5.5.o.f w w _ {. X X!.U.U.U.U.!.I.3.u.u.8.u.y.5.% * % x $.5. .t w 8 3 u ",
"(.'.'.m.n.N.N.N.M.z.-.5.@.X.r q r 4.u.u.u.u.u.u.8.u.u.o.q i s 1.J.J.R.(.'.!.C.N.M.x.N.N.M.8.u.u.u.u.u.=.% : * : l i Y j.L.J.m.n.",
"'.~.~.b.8.1.1.u.3.2.u.8.u.5.% : . o.u.u.u.u.8.u.u.y.u.O.: $ q Z..X.X|.~.E.!.v.8.8.8.u.u.8.v.u.u.u.u.u.=.@ * : - $ : N !..X.X]./.",
"'.E.^.x.1.1.u.u.3.u.3.u.v.5.& % + #.y.y.i.u.8.8.y.y.i.O.- : 8 C..X.X].!.^.U.1.u.2.y.t.y.7.9.y.y.p.y.M.=.@ : : - % & N !. X X'.!.",
"'.~.^.v.8.8.u.u.8.3.u.3.0.9.] Q { b g v  .8.y.6.R v n l % # y y.K.P.K.C.C.N.D b g g v b b n v h ..u.u.5.O : : v >.f.h.H.K.U.m.n.",
"'./.!.v.0.u.u.u.8.8.8.u.p.y.p.u.t.p * % n 7.u.5.q - * * % # = o.v.b.v.g.3.6.= % % % % % % % % % W u.B.5.@ * % ( [. X_.h.v.g.g.g.",
"'.E.!.N.u.u.u.u.M.u.8.8.8.u.3.u.i.p : % m 7.y.5.9 : # * # * > $.0.u.y.u.y.6.& * * # # $ : : : * W y.M.=.% $ : &. X.X].b.9.u.8.8.",
"K.Z.C.6.5.5.5.5.6.6.7.3.3.3.3.3.y.d = 7 c $.5.@.e 3 7 6 2 6 8 X.5.=.5.5.=.$.7 7 = 0 0 9 9 = 7 5 W 5.5.#.7 = 7 ^ T.W.S.<.6.5.6.5.",
"N r r q 0 0 y 0 0 q -.u.u.3.3.u.3.=.o.@.M k 0 r %.g.g.b.b.v.<.s y 0 0 0 7 i o.o.o.o.o.o.o.o.o.#.m 0 0 i #.@.o.E s e d q 0 0 0 9 "
};
