/* XPM */
static char *gold641716366481[] = {
/* columns rows colors chars-per-pixel */
"64 64 149 2 ",
"   c #8C7613",
".  c #8E7A15",
"X  c #8E7A19",
"o  c #907714",
"O  c #927A16",
"+  c #937B19",
"@  c #997D1C",
"#  c #947E20",
"$  c #987E21",
"%  c #96811C",
"&  c #99821E",
"*  c #968222",
"=  c #9B8423",
"-  c #9D8925",
";  c #9B8629",
":  c #958A2E",
">  c #9E8B2A",
",  c #9C8B33",
"<  c #A18A25",
"1  c #A38D2B",
"2  c #A88E2E",
"3  c #A5912D",
"4  c #A9932E",
"5  c #A58E31",
"6  c #A08B38",
"7  c #A59231",
"8  c #AB9532",
"9  c #AD9935",
"0  c #A79438",
"q  c #AA963A",
"w  c #AE9A3A",
"e  c #B09A36",
"r  c #B29C3B",
"t  c #AEA13B",
"y  c #B5A13E",
"u  c #B9A23E",
"i  c #AB9740",
"p  c #AD9D42",
"a  c #B39F40",
"s  c #B6A243",
"d  c #BAA543",
"f  c #BDA946",
"g  c #BCA749",
"h  c #B7A84D",
"j  c #BEAA4A",
"k  c #BFB04B",
"l  c #B7AB57",
"z  c #BDAC53",
"x  c #BFB55E",
"c  c #BFB867",
"v  c #BFBA68",
"b  c #C0AA47",
"n  c #C2AD4C",
"m  c #C5B14E",
"M  c #C1AD55",
"N  c #C0AE58",
"B  c #C6B352",
"V  c #CBB654",
"C  c #CCBA56",
"Z  c #C3B35C",
"A  c #CBB759",
"S  c #CEBB5B",
"D  c #D1BB56",
"F  c #D2BD5C",
"G  c #C3B260",
"H  c #CDB761",
"J  c #C3B863",
"K  c #CAB962",
"L  c #C3B769",
"P  c #C3B969",
"I  c #CBBF69",
"U  c #D3BE61",
"Y  c #CFC05B",
"T  c #D3C05E",
"R  c #D6C363",
"E  c #DAC565",
"W  c #D7C864",
"Q  c #DBC966",
"!  c #D6C56C",
"~  c #DBC76A",
"^  c #D7C86C",
"/  c #DBC96A",
"(  c #CEC472",
")  c #D2C873",
"_  c #DDCD72",
"`  c #D5CA7A",
"'  c #DDCE79",
"]  c #DED072",
"[  c #DDD47C",
"{  c #E0C76A",
"}  c #E0CA6C",
"|  c #E2D26E",
" . c #E2CF71",
".. c #E3D373",
"X. c #E8D577",
"o. c #E4D976",
"O. c #E5D57A",
"+. c #E9D77A",
"@. c #E6D97A",
"#. c #EBDC7C",
"$. c #F0DD7E",
"%. c #EDE17D",
"&. c #F1E17F",
"*. c #D7C982",
"=. c #DED483",
"-. c #DFD880",
";. c #DDD688",
":. c #E2D583",
">. c #E3DA83",
",. c #ECDE82",
"<. c #E0D788",
"1. c #E5DD8B",
"2. c #EADD8B",
"3. c #F2DF80",
"4. c #EDE283",
"5. c #E3E08F",
"6. c #EBE28B",
"7. c #F2E484",
"8. c #F4E987",
"9. c #F8EA87",
"0. c #F5E789",
"q. c #F4EA8A",
"w. c #F8E98A",
"e. c #E7E092",
"r. c #ECE494",
"t. c #EDE897",
"y. c #EDE59B",
"u. c #EEEB9B",
"i. c #F4EC93",
"p. c #F9EF96",
"a. c #F3E59A",
"s. c #F4ED9C",
"d. c #F8ED9B",
"f. c #F5F092",
"g. c #F5F19D",
"h. c #F9F29C",
"j. c #EEEAA0",
"k. c #F4EDA3",
"l. c #F8EFA0",
"z. c #F5EDAA",
"x. c #F6F1A3",
"c. c #FAF3A3",
"v. c #FDF9A5",
"b. c #F6F2AA",
"n. c #FAF4AC",
"m. c #FDF9AD",
"M. c #FCF7B2",
"N. c #FEFAB4",
"B. c #FDFABA",
/* pixels */
"O O + O O O O @ = k.B.B.B.B.B.B.B.B.N.:./ ! ~ Q ! / / ~ / B * + + W q.q.4._ / / / / / _ ~ ~ E = + O , M.B.N.s.w.q.q.q.q.q.q.q.q.",
"O O O O % O O O * l.M.N.B.B.B.B.M.M.N.:._ ^ ^ / ^ / ~ Q / B % + + R 8.7.#./ / / / / / / ~ Q E = + # , z.B.N.i.q.q.q.8.8.8.8.q.9.",
"f f f f f u f f f ! ( ( <.c.c.g.y.r.t._ E / / / ^ / / ~ ~ S y w w k C C F ..o.o. ./ / U d d d z M z P x.x.h.6.#.@.%.o.%.@.%.%.%.",
"q.q.q.q.q.q.q.8.7.= . X g w.q.6._ / / / } ~ ~ ~ / ~ / / / / / / Q 4 . O 4 #.9.0.+./ / V . X * j.N.B.m.q.8.8...~ / / / / / Q W ^ ",
"q.8.8.q.8.q.8.q.%.= O O f q.q.7./ / / / / ~ ~ ~ / / / / ~ / / ~ Q 4 O O 4 $.8.0.X.~ ~ D O O # k.B.N.m.q.8.8.../ / / / / / Q Q / ",
"0.q.9.q.q.0.q.q.7.% O o f w.w.7./ Q / / / / / / / ~ ~ / / / / / Q 4 O O 8 $.9.0.+./ / A O O $ a.N.M.v.q.q.q.../ / / / / / Q Q / ",
" ... . ...} ..| / C V V g 0 0 r X.4.#. ./ ^ / / ~ ~ / ~ ~ / / / { 4 . O & 4 4 4 2 1 1 < O O @ 3.i.f.0... . ./ ~ / ~ / / / Q Q / ",
"/ / ~ / ~ ~ / / / / ~ ~ g + O - #.q.q...W / / Q / / Q ^ ^ / / / Q 9 O O O O O + O . O O O O @ +.q.q.7./ / ~ / / / / } } / Q Q / ",
"/ / / / ~ / / / / / / / g O O < #.9.&.| { Q Q Q Q / / / Q / Q Q Q 8 . O + O . O O O O O O O + +.q.q.,./ / / ~ ~ ~ / { { } / Q / ",
"/ / / / / / / / / / / / d O o = D T T m b b n E Q Q V f f Z O.1.,.V s d r w 8 9 8 9 8 8 e 9 w D F T R ~ / / / / / / { { } Q Q { ",
"/ / / / / / ~ / / / / / g O o O % O + % O O @ T Q Q w % + p k.B.M.d.0.0.,.^ W W R ~ E R E E U < + % > ~ ~ ^ / ~ / ~ / ~ ~ / / / ",
"/ / / / / / / / / ~ W / d O O O O O O O @ O O F Q / w + O s k.B.N.d.q.q.4./ / / / / / { { { { $ + + ; R ~ / ~ ~ / ~ ~ ~ ~ W Q Q ",
"R R / / / / / ~ ~ R R W g ; ; ; & & & * = = & F E E 9 = * s u.B.m.i.q.8.,./ ~ / / / / ~ / { E 1 % % < F T R T R T R E T R R T T ",
"* < F ~ / ~ ~ { E - @ & M a.k.y.6.#.%.%.&.%.#.< & @ ( y.u.s.u.i.q.@./ / / / / / / / ^ / / E / Q R E V = @ & & & & & & & % % @ & ",
"O - Y / ~ / } { T & O O Z N.B.m.i.8.8.8.8.8.w.= O O ) n.B.b.i.q.q.O./ / / / / / / ~ / ~ / / ~ / / / C % O @ O O O O O O O + + + ",
"O - U ~ Q Q ~ { U = . . Z m.B.n.i.q.q.w.q.8.w.= O O ` M.N.n.i.8.q...^ ^ / / ~ Q ~ ~ ~ / / ~ / / / Q S + O + O + O O O O O O O O ",
"s s r s u y s u s Z K K [ g.g.g.%.[ X.S m n M Z H H 1.l.n.a.>.@.@./ ^ / / / E Q Q / Q / ~ / ~ b y u s Z K K K K K C m m m s u u ",
"E F = O O O O O * x.B.N.x.q.f.4./ W E 2 + X X k.B.B.d.w.q.3._ / / / Q ^ ^ / Q Q Q Q ~ ~ / ~ Q & . + , b.B.B.B.B.B.v.q.q.q.] Q / ",
"~ F = + O O O O * g.B.B.b.q.9.7./ Q Q 2 + + X z.B.B.h.q.8.3._ / / / / / / / / / / / / / ~ / E & . O , b.N.B.B.B.B.c.q.q.q.] Q / ",
"{ F ; + + + O O * g.N.N.h.f.9.7.| / E 2 + . X k.N.N.p.q.0.#./ / / / Q / / / / / / / ~ / / ^ W & + O , b.N.N.m.N.N.c.8.q.8.] / / ",
"~ ~ U U F r O O % %.f.f.q.q.8.7./ ~ { 2 O O . 6.f.i.@.] _ / / / / / / / / / / / / ~ / / / / R & O + > q.f.i.i.i.u.4./ | ^ Q W / ",
"~ { { ~ E d O O % %.9.8.q.8.8.7./ ~ { 2 + O . %.f.q.../ / / ^ / / / ^ / / / / / ~ / Q / / Q E & + O 1 8.q.q.f.q.q.%./ Q / Q / / ",
"~ ~ / ~ E g o + + &.8.8.q.8.9.7./ ~ / 2 O O . %.8.q.X./ / / / ~ ~ / Q ~ / / { / / / / / E Q E & O + 1 &.8.8.q.q.q.@.Q / / / / / ",
"~ ~ / / E A a a y n m m T @.+.X./ ~ E 4 O O . %.q.8.../ / / / / / / / / T d u u u u s y u u u + O O 1 7.8.8.#.+.o.../ / / / / / ",
"} ~ ~ ~ / E ~ / R = O + e / / / / / ~ 2 O O . %.8.8.o./ ^ / / / / ~ / / V & % O O + O + O O O O O O < 7.0.0.../ / / / / ~ / Q Q ",
"_ ~ / ~ ~ / / ! R @ O O e { ~ / ~ / ~ 2 O O . %.9.8.o./ / / / / / Q / / V % O O O + O O o @ O O . O 3 8.9.8.../ / / / ~ ^ / ~ ~ ",
"^ ~ / ~ ~ / / ~ T & O O 9 / / ~ ~ ~ { e - - > / | | / W Q / ~ / Q S C C n 9 7 0 0 0 8 0 2 2 3 4 3 1 9 | | | } / / / Q / / / / / ",
"/ / / / / ~ / / E @ O O e / / ~ / ~ { U D F F 3 > > B / / / / / ~ w = ; r 2.y.y.y.y.a.e.X.X.X.......W 1 1 3 C Q Q / ~ / ~ / ~ Q ",
"_ ~ / / ~ / / ~ E & + O e / / / / / ~ Q E { E $ O O j / / { / ~ Q 8 O O w k.B.B.B.B.B.n.f.8.9.8.9.8.| & + # B Q Q / / ~ ~ / / / ",
"~ / ~ / ~ E E E T & O O 9 Q ~ Q / / / E Q E Q = + O f Q Q / / E E 3 O O w k.B.B.N.B.B.m.8.f.8.q.9.8.] % + # B / Q ~ ~ ~ / / / E ",
"/ / / / / m 8 8 e f b b V / / / ~ ~ E d 9 9 9 + . . 1 8 8 8 8 9 4 & O O w k.B.B.b.g.s.i.] o.o.| ..o.] k b b r 9 4 f / / / / / / ",
"/ / / / E g o + @ F Q Q / Q Q Q ~ { E 4 + + + + % . O O + + + O O O O + i b.B.M.l.q.q.8.W / / Q W / / Q { E 2 + + e } / E / / / ",
"/ / / / E d o O + R / { / / Q Q E ~ Q 3 X + + + + O O O + + O + O O o O w k.N.N.h.8.q.,.~ / ~ ~ Q / Q / { E 2 + O e / / ~ / Q Q ",
"R F U F F e O O % R / / ~ ~ ~ Q R F F w > > > ; ; = - = = ; = - = O O O w s.m.n.i.4.7.,.^ ~ / / Q / ~ / { E 3 + + 8 R U U U T F ",
"< < < < < $ O O % T E / { / { R 3 < < ! e.e.6.X. ....... .{ F C D 4 O . 8 6.f.i.@.....} Q / / ~ ~ ~ / / / E 3 + O + < - - < < < ",
"O O O @ O O + + + T Q / { { / K % O + <.B.B.N.i.w.0.8.9.8.3./ ~ E 4 O O 0 #.q.q.X./ } / / ~ ~ / / / / / { R 1 O O O O O O O O O ",
"+ * + * + & + + = F E E E E Q C - + * <.M.N.m.q.0.0.0.9.0.,.{ ~ T 4 o O 4 #.q.0.../ / / / / ~ Q / ~ ~ / / E 3 O + X + + # # + * ",
"P P P P J V B m m y r u r s r d G L P e.x.g.g.,.+.@.+.X.+.O./ ~ Q 4 O O 8 $.8.0.X./ / / ~ ~ / ~ / / / / / E 1 O O 0 I L L c L L ",
"N.N.N.B.m.c.0.9.&.& O + + + + , k.B.N.g.q.i.q./ / / / / ~ / ! ~ { 4 + O 8 #.q.0.X./ / / / / ~ / ~ ~ / ~ ~ R 1 + O l B.N.N.B.B.N.",
"B.B.B.B.N.c.0.9.&.& O O O O + > j.B.N.s.q.q.q./ ^ / / / ~ { } ~ T 9 + O 4 #.q.8.@./ / / } / / Q / / ~ / / ~ 1 + O l B.N.N.B.B.B.",
"x.b.b.b.b.i.4.7.&.& % O & 3 7 p s.M.m.i.4.4.4./ / / / / ~ { ~ _ Q 9 % O 1 / X...W S F D C D C Q Q Q Q S C A w 7 5 J n.m.n.b.b.b.",
"! ! ! ! ) / E W T & O . Z m.B.m.s.q.q.[ ~ Q / / ~ ~ / / } / ~ / Q 9 O O .       . . O .     O F Q W S . . % -.N.N.x.i.q.i./ ! / ",
"/ / / / ~ / ~ / E & O O x N.B.m.i.8.8.] _ ! / / / / ~ / ~ ~ / _ W 4 O O O O O O O O + O O O % F Q Q S % X % ;.B.B.v.q.q.q._ / / ",
"/ / / / / { / } T % O o Z m.N.m.i.q.q...! / / / ~ ~ / ~ ~ / / / Q 4 o % O   . . o o   O     O T } / S X X % -.N.N.h.8.q.q._ ^ / ",
"/ / / ~ ~ n 2 4 3 O o O < r y s }  . ./ / / / / / ~ ~ / / / ! / Q 4 O O 3 ` ;.=._ / / / / Q Q 8 1 3 w =.;.;.t.g.s.4./ ..../ ^ / ",
"/ / / / E d . O O O O O O O + = U ~ ~ _ / / / / ~ / / ~ ~ E _ / Q 4 O O w s.B.m.h.0.q.q.q.q.4.; O O 6 z.B.N.d.q.i.,./ ~ ~ / / / ",
"/ / / / ~ d O O O O O O O O + & T / ~ ~ / ~ / / ~ / ~ ~ / / / / Q 4 O O w k.B.M.s.8.q.8.q.8.7.; O O , b.N.M.g.w.q.#.Q ~ / / / / ",
"~ ~ H C C d 5 1 1 2 1 1 1 2 < 7 V C S U ~ / ~ / / / ~ / / U S D Y t 4 3 h l.m.m.s.4.4.8.4.8.#.- + + : 5.r.r.i.w.q.+.~ / / / / ~ ",
"~ F > $ = Z z.j.k.6.%.4.%.%.%.] < % % V Q { { / Q / ~ Q Q V = & * ) x.b.j.i.i.w.@.| / | / / / = X O + = = 1 / w.q.#./ / ~ / / / ",
"~ U = + + x B.B.m.t.q.8.4.q.8.@.- O + V { Q Q / / / Q / / B & + X ` N.M.b.i.q.w.O./ / / / / Q = O O O + O & } q.q.#.Q / / / / / ",
"^ F = X * x B.B.m.w.q.8.8.8.8.X.= O O V E T } Q Q / ~ ~ E B % X # *.B.N.m.i.9.8.X.^ E Q / Q R = . + O O % & / 8.q.o.Q Q / ~ ~ / ",
"3 y ` -.:.1.s.l.i.[ ] ..] ..] R % O O < 4 4 4 4 3 3 2 8 1 s [ :.[ e.s.g.@.t w e 8 3 3 3 4 4 3 _ [ -.] ^ Q T s 9 9 9 3 3 1 R { ~ ",
"O 5 y.N.N.b.0.w.8./ Q / / / ^ S & O O O O O O O O O O + o a k.B.N.s.w.q.Q - . O O O O O O O $ s.B.N.v.f.4.7.9 % + O O O O U / / ",
"+ > y.N.M.c.w.q.8./ / / / / W S & + O O O O . O O O . O X a l.B.B.f.q.i.| = O + O O O O O O $ s.N.N.m.q.7.7.4 + . O + O   F / / ",
"% 3 6.m.v.i.7.7.&./ / ^ / / ^ S & O O > q 0 q 8 7 5 5 5 7 h :.1.5....._ T 8 1 4 2 4 2 2 3 3 0 [ 5.1.1.q.8.7.f 7 7 7 ; > < M A A ",
"O > @.q.q.#./ / / / / / / / / S & O + =.M.M.m.w.8.8.8.8.8.W = O + + + + 8 %.&.8.8.8.7.0.7.8.4.> % O > 8.q.q.8.8.8.+.Q / / = + + ",
"% - [ 8.8.X.~ / / ~ ~ / ~ / Q S & % O :.B.B.N.f.q.q.8.q.q.~ = O + O O O 4 %.8.8.8.8.9.q.q.w.4.; X O < 0.q.8.q.8.q.#.Q Q / = O o ",
". - %.8.8.@.Q ~ / / / ~ / Q ^ K & O + [ N.m.m.w.q.8.8.8.0.R = O . O O O 4 %.8.8.q.8.8.4.8.q.4.- O O 1 7.8.0.9.0.9.X.W ~ ~ & O o ",
"C T | ] | / / / ~ ~ / / / / / S & . % / p.i.w..._ _ |  .} / U F D 4 O O 8 #.8.8.@./ ] / ] / / & O O = / / ] _ ..| / / / { & O O ",
"Q Q / W / / / / / / / / / / Q S & O O W q.q.q./ ^ / / / / / ~ ~ Q 4 . O 3 #.8.8.o.Q ^ / / Q Q = + + = Q / / / / ^ Q / / { & O O ",
"} Q Q Q / / ^ / / / / } / / / S & + + W q.q.w._ / / / Q Q ~ / } Q 4 . O 4 #.q.0.X./ / / ~ / R & O O = ~ { { ~ / E E { { / & O O ",
"/ / / / / F m V A D V V V V V B w 8 9 / 4.7.%./ / ^ ^ ^ ^ R A V V y 7 4 f +.4.#.../ / / ~ / R = O O & B D D V V V V m D V & @ O ",
"/ / / / ~ d = @ $ $ $ & $ & = 4 ..#.#.../ _ / / / / Q W / V < = = Y %.%.@.] / / / / / / _ ~ Q = O O + & & @ & & & & @ @ @ O O @ ",
"/ / / / E d O + O O O O + O O - #.q.w.../ / / { } / / / Q B = + + T 9.8.&./ } / { / / } ~ ~ R $ O O O O O O O O O O @ O O O O @ "
};
