/* XPM */
static char *metal641716366482[] = {
/* columns rows colors chars-per-pixel */
"64 64 217 2 ",
"   c gray34",
".  c #585858",
"X  c gray35",
"o  c #5A5A5A",
"O  c #5B5B5B",
"+  c gray36",
"@  c #5D5D5D",
"#  c gray37",
"$  c #5F5F5F",
"%  c #606060",
"&  c gray38",
"*  c #626262",
"=  c gray39",
"-  c #646464",
";  c #656565",
":  c gray40",
">  c #676767",
",  c #686868",
"<  c #6F6F6D",
"1  c gray43",
"2  c #6F6F6F",
"3  c #706E6F",
"4  c #71726D",
"5  c #71716F",
"6  c #716F70",
"7  c gray44",
"8  c #717171",
"9  c #727071",
"0  c #727270",
"q  c #737371",
"w  c #707072",
"e  c #717173",
"r  c #727272",
"t  c gray45",
"y  c #747273",
"u  c #727274",
"i  c #737375",
"p  c #747474",
"a  c gray46",
"s  c #767676",
"d  c #777777",
"f  c #767877",
"g  c #767678",
"h  c gray47",
"j  c #797979",
"k  c #7A7A78",
"l  c #78787A",
"z  c gray48",
"x  c #7B7B7B",
"c  c #7D7D7B",
"v  c #7C7C7C",
"b  c gray49",
"n  c #7E7C7D",
"m  c #7E7E7C",
"M  c #7F7F7D",
"N  c #7E7E7E",
"B  c gray50",
"V  c #808080",
"C  c #818181",
"Z  c gray51",
"A  c #838383",
"S  c #838584",
"D  c #848484",
"F  c gray52",
"G  c #868686",
"H  c gray53",
"J  c #898987",
"K  c #888888",
"L  c #898989",
"P  c gray54",
"I  c #8B8B8B",
"U  c gray55",
"Y  c #8D8D8D",
"T  c #8F8F8D",
"R  c #8E8E8E",
"E  c gray56",
"W  c #909090",
"Q  c gray57",
"!  c #939391",
"~  c #929292",
"^  c #939393",
"/  c #949492",
"(  c #959593",
")  c #949693",
"_  c #939395",
"`  c gray58",
"'  c #959595",
"]  c gray59",
"[  c #979797",
"{  c #989896",
"}  c #989898",
"|  c gray60",
" . c #9A9A9A",
".. c #9B9B9B",
"X. c gray61",
"o. c #9D9D9D",
"O. c gray62",
"+. c #9F9F9F",
"@. c #A0A0A0",
"#. c gray63",
"$. c #A2A2A2",
"%. c gray64",
"&. c #A5A5A3",
"*. c #A6A7A2",
"=. c #A4A4A4",
"-. c #A5A5A5",
";. c #A6A6A4",
":. c #A7A7A5",
">. c gray65",
",. c #A7A7A7",
"<. c #A9A9A7",
"1. c #A9ABA6",
"2. c #A7ACA8",
"3. c gray66",
"4. c #A9A9A9",
"5. c #A9ABA8",
"6. c #AAAAA8",
"7. c #ABABA9",
"8. c #A9ABAA",
"9. c #AAAAAA",
"0. c gray67",
"q. c #ACACAA",
"w. c #AAAAAC",
"e. c #ABABAD",
"r. c #ACACAC",
"t. c gray68",
"y. c #AEAEAE",
"u. c #AFAFAF",
"i. c gray69",
"p. c #B1B1B1",
"a. c #B2B2B2",
"s. c gray70",
"d. c #B6B7B2",
"f. c #B4B4B4",
"g. c gray71",
"h. c #B7B7B5",
"j. c #B6B6B6",
"k. c #B7B7B7",
"l. c #B8B9B4",
"z. c #B8B8B6",
"x. c #B9B9B7",
"c. c gray72",
"v. c #B9B9B9",
"b. c #BABAB8",
"n. c #BBBBB9",
"m. c gray73",
"M. c #BBBBBB",
"N. c #BABCBB",
"B. c #BCBCBC",
"V. c gray74",
"C. c #BDBFBE",
"Z. c gray",
"A. c gray75",
"S. c #BEC0BF",
"D. c #BFC1C0",
"F. c #C3C3C3",
"G. c #C5C5C3",
"H. c gray77",
"J. c #C5C5C5",
"K. c #C4C4C6",
"L. c #C8C8C8",
"P. c gray79",
"I. c #CBCBCB",
"U. c #D0D0D0",
"Y. c gray82",
"T. c #D2D2D0",
"R. c #D2D2D2",
"E. c LightGray",
"W. c #D3D5D2",
"Q. c #D5D5D5",
"!. c #D7D7D5",
"~. c gray84",
"^. c #D7D7D7",
"/. c #D8D8D6",
"(. c #DADAD8",
"). c #DBDBD9",
"_. c gainsboro",
"`. c gray87",
"'. c #E4E6E5",
"]. c #E9E9E9",
"[. c #E8EAE9",
"{. c #EBEBE9",
"}. c #E9EBEA",
"|. c #EAEAEA",
" X c gray92",
".X c #EAECEB",
"XX c #EBEDEC",
"oX c #ECECEC",
"OX c #EDEFEE",
"+X c gray94",
"@X c #F1F1F1",
"#X c #F0F2F1",
"$X c #F2F2F0",
"%X c #F3F3F1",
"&X c #F2F4F1",
"*X c #F2F4F3",
"=X c #F6F7F2",
"-X c #F3F5F4",
";X c #F4F4F4",
":X c #F4F6F5",
">X c #F6F6F4",
",X c #F7F7F5",
"<X c #F5F7F6",
"1X c gray97",
"2X c #F6F8F3",
"3X c #F4F8F7",
"4X c #F7F9F6",
"5X c #F6F8F7",
"6X c #F8F8F6",
"7X c #F9F9F7",
"8X c #F6F7F9",
"9X c #F5F9F8",
"0X c #F7F9F8",
"qX c #F9F9F9",
"wX c #F8FAF9",
"eX c #FAFAF8",
"rX c #F9FBFA",
/* pixels */
"^ ] ] ] ^ ] ^ ] ] ^ ] ] ^ ] ] ^ ] ^ ] ] ^ ] ^ ] ] ] ] ^ ] ^ ] ] ^ ] ] ^ ] ] ^ ] ^ ] ] ^ ] ] ] ^ ^ ] ] ] ^ ] ] ] ^ ] ] ^ ] ] ^ ] ",
"] ] ] ] ] ] ] ] ] ] ] ] ] ] ] ] ] ] ] ] ] ] ] ] ^ ] ] ] ] ] ] ] ] ] ] ] ] ] ] ] ] ] ] ] ] ] ] ] ] ] ] ] ] ] ] ] ] ] ] ] ] ] ] ] ",
"] ] ] ^ ] ] ] ] ] ] ] ] ] ] ] ^ ] ] ] ] ] ] ] ] ] ] ] ] ] ] ] ] ] ] ] ] ] ] ] ^ ] ] ] ] ] ] ] ] ] ] ^ ] ] ] ] ] ] ] ^ ] ] ] ] ] ",
"p.p.p.u.u.p.u.u.u.u.u.u.u.u.p.u.u.u.u.p.u.u.u.u.u.u.u.u.u.u.u.p.u.p.u.u.u.u.p.u.p.u.u.p.u.u.u.u.u.p.u.u.p.u.u.u.u.u.u.p.u.u.p.p.",
"m.m.m.m.m.m.m.m.m.m.m.m.m.m.m.m.m.m.m.m.m.m.m.m.m.m.m.m.m.m.m.m.m.m.m.m.m.m.m.m.m.m.m.m.m.m.m.m.m.m.m.m.m.m.m.m.m.m.m.m.m.m.m.m.",
"B.m.m.m.m.m.m.m.m.m.m.m.m.m.m.m.m.m.m.m.m.m.m.m.m.m.m.m.m.m.m.m.m.m.m.B.m.m.m.m.m.m.m.m.m.m.m.m.m.m.m.m.B.m.k.m.m.m.B.m.m.m.m.B.",
"k.k.9.>.>.9.p.p.u.k.k.k.p.9.>.9.u.p.p.p.p.p.k.9.>.>.u.p.p.p.k.k.m.u.>.>.>.u.p.p.p.k.k.k.>.>.>.u.p.p.p.k.k.k.9.>.9.9.p.p.p.k.k.k.",
"9.>.Z s s Z  . . .>.u.9.] s s j ^ ]  .$.u.9.p.v s s F ] ] o.9.9.9.I s s j ^  . .$.9.9.$.s j s E ]  . .>.9.9.I s s v ]  .] 9.9.9.",
"9.>.Z s s v ] ] ] >.9.9.] 7 s s ^ ^ ] $.9.9.9.j s 7 F ^ ]  .>.9.9.I 7 s j ^ ^ ] o.9.9.$.s 7 s E ^ ^ ] >.9.9.F s 7 v ] ^ ] >.9.9.",
">.$.v 7 7 v ^ ^ ^ $.9.9.] 7 7 7 I ^ ^ o.>.9.u.j 7 7 Z ^ E ] 9.9.9.F 7 7 s E ^ ^ o.9.>.o.7 7 7 E ^ ^ ] >.>.>.F 7 7 v ^ ^ ^ $.>.9.",
": : # # # # % % % : : : % # % # % % % : : : , # # # % % % % : , : % # . # # % % : , : : # # # % # % : : : : % # # # % % % : : : ",
". . . .   . . . . . . . . . . . . . . . . . . . . . . # . . . . . . . . # . . . . . . . . . . . . . . . . . . . . . . . . # . . ",
". . . . . . . . . . . . . . . . . . . . . . . . . . . . . . . . . . . . . . . . . . . . . . . . . . . . . . . . . . . . . . . # ",
": % % % % % % % % % % % % % % % % % % % % % % % % % % % % % % % % % % % % % % % % % % % % % % # % % % % % % % % % % % % % % % % ",
"7 s 7 s 7 s 7 s 7 7 7 s 7 7 7 s 7 7 s 7 s 7 s 7 s 7 7 s s 7 s 7 7 s 7 7 7 s 7 s s s 7 7 7 7 s s s 7 s 7 7 7 s 7 s 7 7 7 7 s 7 s ",
"7 7 s 7 7 s 7 7 7 s 7 s 7 s 7 7 s 7 7 7 s 7 7 7 7 7 s 7 7 s 7 i s 7 7 s s 7 7 7 7 7 7 s s 7 7 7 7 7 s 7 s 7 7 7 7 s s 7 s 7 s 7 ",
"j j s s s j s s s s j s s j s s j s s s s s s 7 i 7 j v v v v v v j d d j d g s d d s j g s s s j s j s s s 7 7 s s v v v n v n ",
"p.k.k.p.k.p.p.k.k.p.p.k.k.p.k.p.p.k.k.p.k.p.k.v i 7 p.'. X X[.[.oXL.f.f.f.p.k.f.k.p.k.p.k.f.f.k.k.p.p.k.k.p.I 7 7 ^ [.[.[.[..XoX",
"m.k.k.m.k.m.m.m.m.k.m.k.m.m.k.m.m.m.m.k.m.m.m.v q q l.&X4X,X9X,XqXY.m.m.m.m.m.m.m.m.m.m.m.m.m.m.m.m.m.m.m.k.I s 7 ] 4X,X8X,X9X6X",
"m.m.m.m.m.m.m.m.m.m.m.m.m.m.m.m.m.m.m.m.m.m.B.v 7 5 m.$X>X6X9XqXrXY.m.m.m.m.m.m.m.m.m.m.m.m.m.m.m.m.m.m.m.k.I 7 7 ] 6X,X6XqX9XqX",
"k.p.p.k.p.p.k.k.k.p.k.k.k.p.p.p.>.o.o.9.k.p.m.j 7 p l.$X6X{.L.K.H.m.k.p.k.p.k.f.p.f.f.f.f.f.f.>.o.$.$.p.p.p.I 7 q ! 6X2X6XI.F.F.",
"9.u.9.q.u.9.9.9.9.9.9.9.9.u.9.>.v s s ] 9.9.u.j 7 p l.&X,X/.F h f ] u.9.q.9.9.9.q.e.q.9.9.9.9.Z s s j >.9.9.F s 7 ! 4X>XqXI s s ",
"9.9.q.9.9.9.9.9.9.9.9.9.9.9.9.>.j 7 s ^ 9.9.u.j p 7 m.+X,X).Z 7 7 ^ 9.9.9.9.9.9.9.9.9.9.9.9.u.v 7 7 j >.9.>.F 7 q ] qX,XqXG 7 7 ",
"9.<.<.9.<.<.9.9.9.9.9.9.9.9.9.>.Z j j ] 9.9.u.j p 7 f.oX+X^.F j f ] 9.9.9.9.9.9.9.e.9.9.9.9.9.F j j Z 9.9.9.I 7 7 ! +X+X,XP j v ",
"9.9.<.9.7.<.7.9.9.9.9.9.9.9.9.>.o.o.o.>.9.9.u.v s 7 $.H.H.F.$.o.o.>.0.0.0.9.9.9.9.9.9.9.9.9.9.o.o.o.$.3.9.9.F s 7 I I.H.I.$.o.o.",
"9.9.<.<.<.7.<.q.9.9.9.9.9.9.9.9.9.9.9.9.9.9.9.j 7 s  .k.m.k.u.9.9.9.9.9.9.9.9.9.9.9.9.9.9.9.9.9.9.9.9.9.9.3.I 7 7 I m.m.M.u.9.9.",
"9.9.9.<.9.<.<.9.9.9.9.9.9.9.9.u.9.9.9.9.9.9.u.v 7 s  .k.m.m.9.9.9.9.9.9.9.9.9.9.9.9.9.9.9.9.9.9.9.9.9.9.9.3.F 7 7 F B.m.m.9.9.9.",
"<.9.<.q.9.9.9.9.9.9.9.9.9.9.9.9.9.9.9.9.9.9.u.j s 7  .k.m.k.9.9.9.9.9.9.9.9.9.9.9.9.9.9.9.9.9.9.9.9.9.9.9.9.I 7 i J M.m.m.e.9.9.",
"7.<.9.9.9.9.9.9.9.9.9.9.9.9.9.9.u.9.9.9.9.9.u.j 7 s  .k.m.k.9.9.9.9.9.9.9.9.9.9.9.9.<.9.9.9.9.9.9.9.9.9.9.9.F s 7 F M.m.m.u.>.9.",
"<.7.<.9.9.9.9.9.9.9.9.9.9.9.9.9.9.9.9.9.9.9.u.j s 7  .k.m.k.9.u.0.0.9.0.9.9.9.9.9.9.9.9.9.9.9.9.9.9.9.9.9.9.F 7 s J M.m.m.u.9.q.",
"7.<.7.9.<.9.9.9.9.9.9.9.9.9.9.>.o.o.$.>.9.9.u.j 7 s  .k.m.p.$.$.+.9.9.9.9.9.9.9.9.9.9.9.9.9.9.$.+.+.o.9.9.9.J i 7 I m.m.m.>.$.$.",
"<.7.<.q.q.9.9.9.9.9.9.q.9.9.9.>.v j s ] 9.9.u.j s 7 ] k.m.u.v j f ] 0.9.9.9.9.9.9.9.9.9.9.9.9.Z d g j 9.9.9.F 7 7 F m.m.m.Z s g ",
"<.<.<.9.9.9.9.9.9.9.9.9.9.9.9.$.v 7 s ] 9.9.u.j s 7  .k.m.u.j s 7 ] e.9.9.9.9.9.9.9.9.9.9.9.9.v s s s >.9.9.F s 7 I M.m.m.v s 7 ",
"q.q.<.9.9.9.9.9.9.9.9.9.9.9.9.>.v s 7 ] 9.9.u.v 7 7  .k.m.u.j 7 7 ] q.9.9.9.9.9.9.9.9.9.9.9.9.v 7 s j 3.9.9.F 7 7 F M.m.m.v i s ",
"<.<.9.9.9.9.9.9.9.9.9.9.9.9.9.>.E F F o.9.9.u.j s 7  .k.m.p.I I I  .9.q.9.9.9.9.9.9.9.9.9.9.9.E F G I 9.9.9.J 7 7 I m.m.m.W F I ",
"<.q.<.9.9.9.9.9.9.9.9.9.9.9.9.9.9.9.9.9.9.9.u.j 7 s ] k.m.k.9.9.9.<.<.<.<.9.9.9.9.9.9.9.9.9.9.<.9.>.9.3.9.9.F s s F m.m.m.9.9.<.",
"q.q.q.q.e.9.q.e.e.9.q.e.e.9.q.9.9.9.>.9.9.9.u.j 7 7  .m.m.k.9.9.9.<.7.0.q.9.e.9.u.9.9.9.9.e.9.9.9.9.9.9.9.9.F 7 5 I m.m.m.e.9.9.",
"&.&.&.>.>.<.>.>.>.>.>.>.>.<.>.>.>.>.>.>.>.>.>.j 7 s ] u.p.p.9.>.<.>.*.&.&.<.>.>.>.>.>.>.>.>.>.9.>.>.>.>.>.$.F p 7 F p.k.p.3.>.&.",
"7 7 5 7 7 7 7 7 7 7 7 7 7 7 7 p 7 7 1 7 7 7 7 1 7 s 7 7 7 s 7 7 7 7 5 5 5 5 7 7 7 7 7 7 7 7 7 7 7 i 7 7 7 7 7 7 7 s 7 7 7 7 1 7 ",
"s 7 s 7 p 7 s 7 s 7 s 7 7 s 7 7 7 s 7 7 s s 7 s 7 7 7 s 7 s 7 i t p s 7 i s 7 s s 7 s p 7 s 7 s s 7 s 7 s 7 7 s 7 7 p 7 i 7 s s ",
"7 7 7 7 7 7 7 7 7 7 p 7 7 3 7 6 5 7 7 7 7 7 7 i 6 7 7 7 7 7 7 7 7 7 7 7 7 7 t 7 7 s 7 7 7 1 2 7 2 2 7 7 i 7 7 7 7 7 7 7 7 7 7 7 ",
" .o.o...o...o.o. .j 7 p E F.B.S.S.D.D.9.o.o.o.o.o.o.o.o.o.o.o.o.o.+.o.$.o.o.+.o.F 7 7 Z B.B.B.B.S.B.m.+.o...o. .o.o... .o.o.o.o.",
"M.M.M.M.M.M.m.M.m.v s 7 $.9XqXqXqX8X,XW.l.N.m.M.M.M.n.n.M.M.M.M.M.M.M.M.m.M.m.m.] t 7 F ,XqX9X9X4X9X+XD.m.m.m.m.m.m.m.m.m.m.m.m.",
"m.m.m.m.M.m.m.m.m.Z 7 s o.4X9XqX4X9X,XY.n.m.m.m.m.m.m.m.m.m.m.m.m.m.m.m.m.m.m.c.] 7 7 F 9X9XqX4X4X9XOXN.M.m.m.m.m.m.m.m.m.m.m.M.",
"k.p.u.9.9.u.k.k.k.B i 7 +.,X9X:X_./.!.G.d.l.k.c.k.k.k.k.k.k.k.k.k.q.9.9.9.f.k.k.^ 7 t F 9XqX9X`.^.^.E.m.k.k.p.k.k.k.p.k.k.k.k.k.",
"9.>.F j s I u.9.9.v 7 7 +.4XqXXXT M d { q.q.0.e.q.e.9.e.9.e.9.e.u.E d s Z =.u.9.E 7 7 F 4XqX:X' v v Z >.9.9.9.9.9.9.9.9.9.9.9.9.",
"9.>.Z 7 7 F 9.9.9.j s 7 $.9X4XXXG p p ` 9.9.9.9.9.9.9.9.9.9.9.9.9.F t s v $.9.9.I 7 s H 4X9X,XE 7 s x 3.9.9.9.9.9.9.9.9.9.9.9.9.",
"9.&.Z 7 i I q.9.u.v 7 7 %.9XqX{.F 7 7 ` 9.9.9.9.9.9.9.9.9.9.9.9.9.I 7 7 v $.9.9.I 7 7 F 8X3X:XE 7 7 j >.>.9.9.9.9.9.9.9.9.9.9.9.",
"9.3. ._ ^ o.9.9.9.c 7 7 ] ^.^.I. .^ ] o.9.9.9.9.9.9.9.9.9.9.9.9.9.o.^ ` ] >.9.9.E q s Z Y.^.E.$.] ^ ] >.9.9.9.9.9.9.9.9.9.9.9.0.",
"9.9.e.9.e.9.9.9.9.x s 7 E m.m.c.u.9.9.9.9.9.9.9.9.9.9.9.9.9.9.9.9.9.9.e.9.9.9.9.I 7 7 v m.m.m.u.e.9.9.9.9.q.9.9.9.9.9.9.9.9.9.0.",
"q.<.<.9.9.9.9.9.9.v s s P m.m.m.0.9.9.9.9.9.9.9.9.9.0.0.e.2.9.9.9.9.9.9.9.9.9.3.I 7 7 v c.m.m.u.9.9.9.q.9.9.9.9.9.9.9.9.0.9.9.0.",
"q.<.9.9.9.9.9.9.9.v 7 7 E m.m.c.u.9.9.9.9.9.9.9.9.9.9.2.2.9.9.9.9.9.9.9.9.9.9.9.E 7 i x m.m.m.e.9.9.9.9.9.9.9.9.9.2.1.2.1.9.9.0.",
"q.<.<.q.9.9.9.9.9.v s p I M.m.m.u.9.9.9.9.9.9.9.9.9.0.2.e.2.9.9.9.9.9.9.9.9.9.3.I 7 s v m.m.m.u.9.9.9.9.9.9.9.9.9.2.9.2.2.9.9.0.",
"q.<.<.9.9.9.9.9.u.v 7 7 P B.m.m.u.9.9.9.9.9.9.9.9.9.9.2.2.9.9.9.9.9.9.9.9.9.9.9.I 7 i v c.m.m.u.9.9.9.9.9.9.9.9.9.1.7.1.9.9.9.0.",
"q.<.q.9.q.9.9.9.9.j 7 p P m.m.m.u.9.9.u.9.9.9.9.9.9.9.9.e.9.9.9.0.9.9.9.9.9.9.9.E 7 q v c.m.m.e.e.u.9.9.9.9.9.9.9.9.9.9.9.9.9.0.",
"<.&.J C Z W 9.9.9.v i 7 E m.m.f.I Z Z  .0.9.9.9.9.9.9.9.9.9.9.9.u.` v Z I %.9.9.P 7 s v m.m.l.E Z v F 9.9.9.9.9.9.9.9.9.9.9.9.0.",
"6.&.C 7 s F 9.9.9.c s 7 I m.l.f.v 7 s ^ 9.9.9.9.9.9.9.9.9.9.9.9.9.I 7 q B $.9.9.I 7 7 x m.m.c.Z 7 7 x >.9.9.9.3.9.9.9.9.9.9.9.0.",
"7.&.M p 7 F 9.9.9.j 7 p I m.m.k.Z 7 7 ] 9.9.9.9.9.9.9.9.9.9.9.9.9.I 7 s v $.9.9.E 7 s c m.M.m.Z s s v 3.3.9.9.9.9.9.9.9.9.9.9.0.",
"<.<.E F I ^ 9.9.9.v i 7 P m.m.f.W F I  .9.0.9.0.9.9.9.9.9.9.9.9.9.] F F E %.9.9.I 7 s v m.m.c.^ G I I >.9.9.9.9.9.9.9.9.9.9.9.0.",
"q.6.<.3.>.9.9.9.9.x 7 7 U M.m.c.u.>.9.9.9.9.9.9.9.9.9.9.9.9.9.9.9.9.9.3.9.9.9.3.E p 7 v m.m.m.9.3.3.9.9.9.9.9.9.9.9.9.9.9.9.9.0.",
"7.<.<.0.9.9.9.9.9.v s 7 P m.m.c.u.9.9.9.9.9.9.9.9.9.9.9.9.9.9.9.9.9.9.3.9.9.9.9.I 7 7 v m.m.m.u.9.9.3.9.9.9.9.9.9.9.9.9.9.9.9.9.",
"<.<.<.<.3.9.9.9.3.v 7 7 P m.c.c.9.9.9.3.9.3.9.3.3.9.9.3.9.3.3.9.9.3.9.9.9.9.9.9.E 7 7 v k.m.c.u.9.9.3.9.9.<.3.9.9.3.9.<.2.9.9.9.",
"I I I I I I I I I s 7 q x ^ W W E I I E K I E I I I I I E I I I I I E I I E I G v s 7 s ^ E ^ P I I I I E I I E I I E I I E I P ",
"7 s 7 7 i q 7 7 i 7 i 7 7 s 7 i t t 7 7 7 7 7 t 7 7 7 2 7 t 7 7 7 3 7 7 7 7 7 i 7 7 s 7 i 7 7 7 2 7 s 7 7 s 7 7 i 7 7 s 7 7 i i "
};
