/* XPM */
static char *test1716367252[] = {
/* columns rows colors chars-per-pixel */
"64 64 104 2 ",
"   c #561505",
".  c #591505",
"X  c #561806",
"o  c #5C1806",
"O  c #551608",
"+  c #5B1608",
"@  c #5D1808",
"#  c #611605",
"$  c #651905",
"%  c #6C1A05",
"&  c #621608",
"*  c #691709",
"=  c #651A09",
"-  c #691A09",
";  c #751D05",
":  c #7B1E04",
">  c #752005",
",  c #7D2205",
"<  c #75220D",
"1  c #7E2408",
"2  c #811F02",
"3  c #852406",
"4  c #8C2403",
"5  c #8C2907",
"6  c #842508",
"7  c #8A270A",
"8  c #8D2909",
"9  c #912404",
"0  c #992605",
"q  c #962B07",
"w  c #9B2B06",
"e  c #93270A",
"r  c #942B09",
"t  c #9B2E09",
"y  c #9D3009",
"u  c #852F18",
"i  c #912C10",
"p  c #9A2E11",
"a  c #9C3112",
"s  c #94331C",
"d  c #99351D",
"f  c #9D391D",
"g  c #A42E07",
"h  c #AC2E06",
"j  c #A32E09",
"k  c #AB2F09",
"l  c #A73207",
"z  c #AB3007",
"x  c #A43109",
"c  c #AC3309",
"v  c #B63407",
"b  c #B93407",
"n  c #B63408",
"m  c #B83409",
"M  c #BD380C",
"N  c #AF3810",
"B  c #A4371C",
"V  c #A5391D",
"C  c #B13914",
"Z  c #BC3D15",
"A  c #B83C18",
"S  c #A73D22",
"D  c #A83C22",
"F  c #C0360C",
"G  c #C23A0D",
"H  c #C43D12",
"J  c #C93F15",
"K  c #C93E19",
"L  c #BE401A",
"P  c #AE4027",
"I  c #AF4128",
"U  c #B44227",
"Y  c #B64328",
"T  c #B94329",
"R  c #CB4216",
"E  c #C2461C",
"W  c #CC4319",
"Q  c #D14417",
"!  c #D2441B",
"~  c #D64B20",
"^  c #DB4C23",
"/  c #DE5026",
"(  c #D55434",
")  c #D85330",
"_  c #DF5D3D",
"`  c #E44E29",
"'  c #E25027",
"]  c #E5522C",
"[  c #E8522D",
"{  c #EA5630",
"}  c #E15B3B",
"|  c #EE5F3D",
" . c #F25F37",
".. c #F55F3B",
"X. c #F85F3D",
"o. c #E7613E",
"O. c #F36036",
"+. c #F6623D",
"@. c #F9623E",
"#. c #FA5F41",
"$. c #E46143",
"%. c #EA6143",
"&. c #F76140",
"*. c #F96242",
/* pixels */
"        .     .           . . .   O         X X           X O       . .     .     .         .     O             .   X X X + X   ",
"    .   . .   . X X   . . +     . .     X   X X X X     X       . . X .   . . . O + . . .   X . . . .   X X   .   . . X . . O   ",
". + f U U U U T U U U U U p 4 7 3 7 3 3 5 5 5 6 3 5 5 4 5 7 $   # S U U T U Y Y Y U U U t e 5 5 4 5 5 5 5 6 7 4 4 8 4 8 8 $ . & ",
"  @ ( &.#.*.*.*.*.*.&.&.*.! b b b b b m n n v n n n n v n n :   + } #.&.&.&.#.X.*.*.*.*.K b n n v n n n n n n n n n n n c %   - ",
"  o ) X.X.+.&.&.*.@.*.*.@.Q b b m v m m n b n b b n b n b n :   # } *.&.&.@.@.@.X.@.*.*.R n v v n b n n n b n b n b v b n ; X - ",
"  @ N K J K H K R H ' @.@.Q n b n m n v n n n b b n n n n n ;   # Z K H K R R K K ] *.*.H n M n b n n n b n n b b v b v c %   # ",
"  . x n v n n n n n ! *.@.! b n m n m b b n b n n n n b n n ;   . j n n n n n v b ^ &.@.R b v n v n v M n n b v n n b n v ; O + ",
"  X j n v b n n n n Q +.+.! n b m m m n n b n n n b b n n n ; O # l n n n v n n M ! +. .J v v c n n n n n b v b n b n n c % . o ",
"  . j n b n n b n v M M M m n b n n n n b b n b n n n n n n >   + j b n b n b n b m M F n n n n n n n b b n b b b n b n n % . + ",
"X . j n b n v n n v n n n v n b n n n n n n n n n n n n n n ;   # k n b n m n b n n n n v n v n n b n b n b n b b n n b n % . . ",
"  . g n v n n b n v c c k n n n h l g h c k k k k c k k l c ;   + l n b b n n b n c c k n n n c c c z z k k h c k k k h l $ . $ ",
"  X g n b n b n v n l 9 9 p n n 0 9 4 9 4 4 9 4 4 4 9 4 4 4 $ . + z n n n n b b b j 9 4 h n n 0 9 4 4 4 4 4 9 9 4 4 4 4 4 $ X # ",
". o x n n n n n n n j 4 9 j n n 0 9 2 9 4 4 4 4 4 9 4 4 4 6 $ X # h b b b b b b n j 4 4 k n n 0 4 4 4 4 2 4 4 2 2 4 4 4 5 # . # ",
"X X 6 e e e r 8 e e 3 ; ; 6 8 8 : ; : ; ; > > ; ; ; > ; > > o X   7 e 7 8 e 8 8 4 2 ; ; 6 5 8 > ; > ; ; ; ; ; ; ; ; ; ; ; o . . ",
".   X . + . . . . + .       + + . .     .     .     . .   .   O   + . . +   +   +       . . . .       . . + . .   .   .     X   ",
"    .   . . X . X . X . X     X .                 O X         O             O   O O     . X X       X .         . .   O   X X   ",
"e e e 5 8 8 8 5 7 e 7 e 8 8 8 6 o X = I Y Y T T T T T T T U a 8 5 5 5 5 8 8 5 5 5 5 5 6 5 5 8 o   - U T U Y U T T Y T T Y r 8 8 ",
"n n n n n n n n n n n n n n n n % X - %.&.*.*.*.*.*.*.*.&.*.R n n n n n n n n n N n n n n n N %   < | @.@.&.@.@.@.@.*.&.*.H n n ",
"n n n n b n n n n b b n n b n c %   $ } +.+.*.*.*.*.*.*.&.@.R n n n n n n n v v b v n v n n c $ + < | X.+.&.+.&.@.&.&.&.*.K n n ",
"n n n b n n b n n b n n b n n v ;   & H R R R R H R R ] &.&.W n n n n n n c v v n n n n n v n $   % H H R H R R R J ] @.+.H n n ",
"n b n n b b n b b n n b n n n n %   $ N v n n n n n n ^ *.&.W n n n n n n n n n n n n n n n c $   - n n n n n n n n ' @.+.H n b ",
"n n b b n n n n n b b n n n n n ; X o l n n c n n m n ~ +.#.R n n n b n n n n n n n n n b n n $ . % c n n n n n n b ^  . .Z b n ",
"b n b n n b b n n n n n n n n c %   $ c n n n n n n n b Z Z b n v v n n M n v M v v n b n b n $ . % c n n n n n b n m H H m b n ",
"n b n n b n n b b n b b n b n n %   $ c n b n n n n n n v v n n v M n b v n v v n v M b n n n $   % c b n n n n b n n n n m b n ",
"n n c c k c c c c z z c n k n k *   # c n n N b n b n n z c v n M c v h z z z v h h v h h v c $ X - c n n b b n n b n k n n n m ",
"n n 0 4 4 9 4 4 4 9 9 9 9 2 3 4 #   # c n n n b n n n t 9 9 g b n 0 4 4 4 4 9 4 9 9 9 9 9 4 3 o X % c v n n n b n n w 9 9 c n n ",
"n n q 4 9 4 2 4 4 4 4 9 9 9 9 3 o X $ c n n n n b b n j 9 9 z n c 9 4 4 3 4 4 4 4 4 9 2 4 4 4 $ X $ c v n b n n n n 0 4 9 l n c ",
"0 w 3 : 2 2 2 : 2 : 2 : : : 2 : # X o i 0 w t w w t t 3 : , 5 w q 3 > > > : : : : 2 : ; : : ; . X $ r q w w w w w t 3 : 2 q t e ",
". .     .             .       +   X     . . . . . . . X   .   X         .   .                 X X         X   .     O X O .     ",
"O .     .   O       . +   .   +   . . . . X       . + X . .             .   . .             X X   X     X X   . .       + .   O ",
"  + s D D D D S D D D D S i 3 3 3 3 3 6 6 6 6 7 6 6 6 6 6 6 $ X . f P V P D V V P P S S 8 6 6 5 3 3 4 6 6 5 5 6 6 4 7 6 6 o X $ ",
"  & ( #.#.#.#.#.#.&.*.#.&.! b m b b b b b b m b n b b b b v > X . } +.+.+.@.@.@.*.@.+.@.K b v v v b v n v v c n n n n n n ;   = ",
". @ ( *.&.*.*.*.*.*.*.*.@.! n n v n n n n n n n n n n n n n ;   $ } *.*.*.*.*.*.&.&.*.*.J b n b n n b n b n n n n n n m c % . & ",
"  + C K R R R R R W ' *.@.! n n n n n b v n v v n n n m n n ; + # Z W R W R W W K ` *.*.K b n n b n n b n m b b n n m m c % . & ",
"  + j b n C v v n n Q &.@.Q n n n n b n n n m m n n m n N m ;   + z b b m m n n n ^ *.&.J n m n n b n b b n n n n m n m n %   + ",
"  + j b n b n n n n Q +.O.Q n n n b n n v n m m b n b m k m : O + z n n n n n C n ^ X.+.J b n b n n m n n n b n m n m m c %   # ",
"  . g b n n b n n b M F M m n n n n n n n m b b n n n b n n ; O + c n n m m n b n m G M b n n n b n b n n b m b n n b v c % X o ",
"  + j b b n n b n b n n n n n n n n n v n n n n n b b n n b ; O + x n b m n n n n n n n n n n n n b m b b n b m b b n v n %   o ",
"  . x n n b n n n n c c c n n n k n c n n n k n n n n k v k ;   # j n n b n m m b n c c n n n n c k n k k k n k n k v c l % X o ",
"  . x n n b n n n n k 9 4 j n n 0 9 9 4 9 2 4 9 2 4 9 3 9 2 % . # l n m n n b n n j 9 4 c n v 0 9 9 9 9 9 9 9 9 9 4 9 9 9 $ . o ",
"  + j b n n n n n n l 9 4 l n n 9 4 4 9 4 3 4 4 4 4 4 4 4 3 $   @ l b n n n n n M t 4 4 c b n 9 4 4 4 4 4 4 4 4 4 4 4 4 4 # . $ ",
"  . 3 0 q q r r w q 3 : : 7 q 0 2 : > : : : : : : , : : > ; #   + 8 y r q q r r q 5 , : 8 r r , : : ; : > > > > ; ; > > > & . X ",
"    . . + @ + . . . . . .   + . . .   . .   + + X . .   .       X . . . . . + .       . + + . . . . .   +   X   .   . .       X ",
"  . . .     X                   .           O   .   X X X         O         .                       . . . . X X O     X X X     ",
"3 3 6 6 3 3 3 3 6 6 6 6 3 6 6 1 $ o = f V V S V V V V B V B 7 6 6 6 6 6 3 3 6 7 3 3 3 7 3 7 3 @   = D B V V V V V V V B B 8 6 6 ",
"n n n n v v n n n n n n n n v N % X - $.*.#.#.#.*.*.*.*.*.&.W n n n n n n M n n b b n n n n c =   ; } #.+.+.*.*.&.&.&.&.+.L n n ",
"n n n n n n n n v n v v v v v n % X - $.*.*.*.#.*.*.&.*.#.+.W n b n b b n b n n b n n n n n n *   < %.@.*.*.*.*.*.*.&.&.+.R n n ",
"n n n n b n n b v v n n M n v v % X - L ! W R E W W W ] #.#.K n n b n n b n b b b b b b n n n $   - E W Q Q R Q R ! { +.+.H b n ",
"v n n n m v m m v m m n v v m h % . $ c n n n n n n n / &.*.K b b n n b b n b n b n n b n b n $   = c b n b b n m m / *.+.H n n ",
"n n b b m m m v v m v m m m n c $   $ z b n n b b n n ^  .*.W b m b n n n n b n n b n n n n c % . $ c b m b n b n b ^ #. .H n b ",
"v b n n n m n n v m v v n b v n ;   # c n n n n n b n Z H H b n m m n m b n n n n b n b b n c $ . $ n n n b b n n b M H H m b n ",
"b v v n n n n n m v m m b n n c % X # c n n b n v n n n m b n n v m b n b n n b b n n b b n n $   = c n b n n b b n n n n n n b ",
"v b n n c n n n n n n v n n n c $ . $ c n n b n b n n n n c n n k n n c n n c n n n k n n v k $ . = c b n n n n m n n n n n n n ",
"n n w 9 e 4 9 4 4 4 4 9 4 9 4 7 #   # c m b n b n b n j 4 4 l n b 0 e 9 9 4 9 7 4 9 9 4 9 4 3 # . $ c n n b b n n b w 9 e c n n ",
"n v 0 4 4 4 4 4 3 4 4 4 4 4 3 3 #   & c m n n n n n n j 4 4 k n n 0 3 2 4 4 4 4 4 4 3 4 4 4 3 # . % c n b n n v b n w 4 2 n n c ",
"j g 3 3 , , , 3 3 2 , , : 3 2 3 # . & t j j j j j j j 9 2 2 q j j 2 3 3 , 3 , , , , , 6 3 : 3 .   $ y l l g g l j j 9 3 2 g j t ",
". .                     .   .           .             O     O                 . .   . .   . . .               +   +             ",
".       . . .     . . . .   .       +       +   . . . X       . .   .   .     . . .     . . . . . + + + .   + O . . . O         ",
"  . u s s f s s d s d s d 7 : 6 1 1 1 6 2 1 1 1 1 1 1 6 1 , $   + s d s s s d d d d d d 7 2 6 < : : 6 : 2 2 2 6 6 6 : 6 1 # . @ ",
"  + ( *.*.*.*.#.#.#.*.#.*.W n n n n n n n n n n n n n n n n ; O # } #.*.*.*.#.#.@.*.&.@.K n n n n n n N n n n n n n n n n % . - ",
"  # ) &.*.*.*.#.*.#.*.*.&.! n n n n n n n n n n n m n n n c > O & } *.*.*.*.*.*.&.&.&.&.K m n b n n n n n n n b n b b n n % X $ ",
"  # A ! ! ! W ! W ~ ] &.@.! n n b n b n n b n b n b n n n n ; X $ L W ! ! ! ! W ! [ &.@.K m b n n n n n b n n n b n n n N % X $ ",
"  @ j m m m n n n n ! *.@.! n n b n n b n n n n n n n b n n ;   o l m n m n n n n ^ @.@.K b b n n b n b n b b n n b n n n ;   & ",
". + x b n n n n n n ~ *.@.W v b n b n n b n b n b b n b n n ;   $ l m m b n n n n ^ +.+.K b n b n b n n n b n n b n n n n % X o "
};
