/* XPM */
static char *Screen_Shot_2024_05_22_at_12_49_02_PM1716367776[] = {
/* columns rows colors chars-per-pixel */
"64 64 130 2 ",
"   c #2D3540",
".  c #2E3A48",
"X  c #383F47",
"o  c #353F4B",
"O  c #383E4A",
"+  c #3D434B",
"@  c #3C4553",
"#  c #3B4954",
"$  c #3D4B5B",
"%  c #3F4E61",
"&  c #43464C",
"*  c #48474E",
"=  c #46484D",
"-  c #484A4E",
";  c #434751",
":  c #454B53",
">  c #4A4D54",
",  c #444D5B",
"<  c #4A4E59",
"1  c #4D5156",
"2  c #46515B",
"3  c #4C525B",
"4  c #515257",
"5  c #51555C",
"6  c #53585E",
"7  c #454F61",
"8  c #455364",
"9  c #4C5563",
"0  c #4E5966",
"q  c #475469",
"w  c #4B566A",
"e  c #4C5A6A",
"r  c #525662",
"t  c #535A65",
"y  c #585D66",
"u  c #545D6B",
"i  c #5A5E6A",
"p  c #545E71",
"a  c #56616D",
"s  c #5A626D",
"d  c #566272",
"f  c #5C6572",
"g  c #5E6974",
"h  c #5E6B79",
"j  c #5F707A",
"k  c #6D6563",
"l  c #6D6964",
"z  c #61666C",
"x  c #6E6C6D",
"c  c #706664",
"v  c #716A66",
"b  c #736D6B",
"n  c #75716E",
"m  c #78726F",
"M  c #616672",
"N  c #636A74",
"B  c #6C6D73",
"V  c #606779",
"C  c #636D7B",
"Z  c #6B6E78",
"A  c #736F71",
"S  c #66717D",
"D  c #6A727D",
"F  c #757373",
"G  c #7A7573",
"H  c #767875",
"J  c #7D7976",
"K  c #75767B",
"L  c #797779",
"P  c #77787D",
"I  c #7C7B7B",
"U  c #817775",
"Y  c #817A77",
"T  c #807778",
"R  c #827D7B",
"E  c #7F807D",
"W  c #84817E",
"Q  c #89837F",
"!  c #667280",
"~  c #6C7582",
"^  c #6F7884",
"/  c #727580",
"(  c #757B85",
")  c #7C7D83",
"_  c #777E88",
"`  c #7C7E89",
"'  c #817F81",
"]  c #817F8A",
"[  c #7E8185",
"{  c #7D818A",
"}  c #7E8796",
"|  c #7D8997",
" . c #7D8B98",
".. c #848384",
"X. c #898583",
"o. c #868887",
"O. c #8A8986",
"+. c #84858A",
"@. c #89878B",
"#. c #86888C",
"$. c #8B8A8C",
"%. c #908F8D",
"&. c #92918E",
"*. c #838691",
"=. c #858A93",
"-. c #8C8D92",
";. c #858D9A",
":. c #8B8F99",
">. c #908F93",
",. c #8E9094",
"<. c #8C929B",
"1. c #939393",
"2. c #999591",
"3. c #979996",
"4. c #999896",
"5. c #94959A",
"6. c #99979A",
"7. c #96989C",
"8. c #99999A",
"9. c #9497A0",
"0. c #959BA4",
"q. c #9A9DA4",
"w. c #969CA8",
"e. c #9B9EA9",
"r. c #9CA0A6",
"t. c #9CA0A9",
"y. c #A2A3A7",
"u. c #A3A5AA",
"i. c #A7A8AC",
"p. c #A8A9AD",
/* pixels */
": o @ : , : : , , , w w r q 9 7 w 9 w 8 0 w u w u u u u i e $ 9 h C C C C C C S C S D S C ~ ^ ! ^ ~ S S C S S ! S ! h a 2 d ! ! ",
";.q ( *.*.=.=.;.-.#.@.*.#.-.-.-.-.>.-.-.-.-.1.>.:.-.<.<.<.:.t g <.5.<.5.5.1.5.5.1.3.7.5.5.5.1.1.5.5.3.5.1.3.3.3.7.7.<.{ q =.t.u.",
";.q _ *.=.$.=.-.-.@.+.+.+.#.-.=.-.-.>.-.$.-.-.-.-.:.1.-.<.-.e g =.$.$.$.$.$.-.1.1.,.3.,.1.1.1.%.1.%.>.1.2.&.1.3.1.2.1.{ u  .p.u.",
" .q _ -.-.-.:.-.-.#.@.#.#.-.@.$.-.-.$.-.$.-.$.-.-.$.:.5.<.-.e g -.-.$.-.1.1.>.1.3.1.,.1.%.1.1.1.>.%.1.1.1.,.1.1.5.5.5.{ q =.u.p.",
"| 8 _ -.-.-.-.-.=.$.$.=.+.+.+.,.-.:.>.>.-.-.$.,.$.,.,.1.<.-.u f >.>.$.>.-.1.1.5.1.%.%.%.1.1.&.1.1.>.1.1.1.1.1.2.7.5.1._ e  .p.y.",
" .q _ =.=.*.*.*.$.+.+.+.+.+.#.$.-.-.-.$.$.#.$.-.1.-.-.-.:.*.0 V >.>.>.>.1.1.5.3.1.1.,.%.$.1.$.2.&.2.1.3.2.2.3.3.1.3.1.[ p ;.p.p.",
" .w ` -.=.=.#.#.-.#.+.+.+.#.#.-.$.-.-.$.-.#.-.-.-.-.-.,.-.=.e h -.1.>.>.>.2.3.5.1.1.,.&.&.%.$.&.%.1.1.2.1.3.2.1.3.1.3.{ e :.p.p.",
" .w } =.-.:.-.*.+.#.#.+.#.#.#.-.-.-.-.$.$.-.#.-.-.:.-.:.<.=.u C -.-.-.>.5.5.5.5.1.&.&.&.,.$.-.%.2.&.&.&.1.2.1.1.1.1.5.#.e ,.p.p.",
"w % w r r u r u u r r r 9 3 9 3 2 2 2 3 3 3 , 2 < , ; : ; @ # $ & & * : 1 > > : = = + = O & + & > > > : 1 > 1 1 3 1 1 2 8 0 6 6 ",
"f f i p d d d d f d d e u u u 8 % e u e u u p d d d u d d g C S d d f M s d f f g f g N i @ y s s f f g g g s g N C N C ~ S C S ",
"+.*.+.*.*.#.+.{ *.*.=.+.*.{ { g e w.0.0.0.0.0.t.w.0.0.0.0.w.r.0.0.0.e.e.0.r.r.t.r.t.t.t.;.9 ` $.-.$.$.-.1.&.2.,.2.1.1.&.,.,.1.1.",
"` ) ..] #.@.+.+.+.+.+.+.[ ..[ N e 0.0.0.0.9.w.9.0.0.0.0.0.0.e.8.r.r.r.q.q.r.0.q.e.t.r.t.;.w ` $.$.$.$.$.1.&.&.&.1.$.%.%.&.&.%.1.",
"` ) ....+.#.+.+.+.+.+.` +.` ) f e 0.w.0.0.0.0.0.e.r.0.0.0.q.e.q.r.8.q.q.e.0.r.q.e.e.e.q.,.w ) $.$.O.O.$.%.%.&.&.2.&.&.&.&.&.&.&.",
") ] [ [ +.+.+.+.#.#.+.+.{ ] ] N d 0.0.0.0.e.0.w.0.r.0.q.q.e.q.0.q.e.r.e.e.q.8.q.e.e.e.r.;.9 ` %.$.$.%.&.%.&.&.&.1.1.2.&.&.&.2.2.",
"` ` ..[ ....] *.#.*.+.{ [ ..+.f p 0.9.0.0.0.0.e.0.r.0.7.8.q.q.e.8.8.r.q.q.r.r.q.e.y.e.e.;.w _ $.%.$.O.&.&.&.&.&.&.2.&.&.&.&.&.1.",
"I I ` { { +.] +.#.+.+.+.+.+.{ N p 0.q.0.0.0.0.7.r.7.r.0.0.q.8.8.e.r.e.q.q.8.q.q.r.q.q.y.<.9 ` $.%.&.&.&.&.&.&.&.3.1.&.&.1.2.&.3.",
"` ) _ ) { +.` *.+.*.*.+.*.+.{ N d 0.0.w.w.e.e.r.e.0.e.0.q.q.q.q.e.e.q.e.e.e.e.y.q.q.r.r.;.2 +.$.5.1.1.1.3.&.2.3.3.4.3.2.&.2.4.4.",
": < 2 < < 2 < < , < 9 3 2 < = @ # 0 t y t r 3 3 3 2 3 < > 1 1 < 1 > > < 1 5 < : > > 2 < @ @ < 1 > 4 1 1 1 1 1 1 1 4 > = - 1 4 > ",
"9 $ 8 e 8 8 e w 7 9 r , < < : 3 0 2 2 < , < 2 , , < 9 < 1 < . ; > < r 5 r y t 3 6 r 3 : 1 y 3 1 5 5 t t t t 6 a 3 5 2 +   3 6 y ",
"N , ~ ( ( ( _ ( ( ( _ ( _ { ` ` { { { { { { +.[ +.) +.*.#._ ; C @.@.@.-.$.$.$.#.$.$.o.o...+.+.........@.#.-.%.-.$.%.,.t ; B b F ",
"V ; Z K K / I ) P ) K ) ) ) ` { [ { ' ` ` ..+.` I ] +.+...( @ N ....#.$.$...$.....o.......I R E ....X.X...@.$.+.@.+.' i : A A F ",
"i , ! K K P P K K I P ) ] ) ) [ +...+.] +...+.) ` ..+...+.( < Z [ +.+.#.$.$.o.$.$...O.........W ....@.@.X...X.........u , A A F ",
"V , / ) P P P P K P I ) I ] ....[ +...#.#...] ' ) +.+...+.I : M ..+.#.@.+.$.+.$...X.....W ......' ......+.X.+.$.@...+.i 9 F F F ",
"V , K ) ) P L K I ) P I ) ' ] I +...#.@.+.@...] ] [ +.+.] ) < M +.+.@.+.+...o.+...O.+.X.........W ......X.$.$.X.@.@...z 9 A n F ",
"N % / / ) P I ) ) ) ' ) ) ' ) ) ] ..@.-.$.$.+.#.#.#.#.+.+.` , B @...+.$.+...+.......o.X.....W o.....+.....$.$.$.$.@.+.N t F F F ",
"N 7 ( { ` ) ) ) ' ) ..] ..] ] ....+.$.-.-.$.@.$.@.#.+.+.+.` < N +.....+.+...+...W ..o.o.+.....E ......X.@.$.%.$.$.+.#.N t F K K ",
", $ r t y 6 r r 6 5 r 6 y 6 5 r t t r r 3 t t r 5 5 5 3 5 < @ , 6 6 5 5 5 6 5 1 3 5 6 4 4 5 1 3 1 1 5 4 5 6 6 6 5 5 5 , , > - 1 ",
"u d a a d u t 0 t 0 u u u u 0 , , 9 2 3 3 r r 2 9 w r t r r e a i u u t u u y r 9 y r u 2 : y s s s u y i z f i M s s s j N M g ",
"5.5.5.5.5.7.7.5.7.5.6.7.5.5.9.p t L H H K P I I L F F F A b x x x x B F F F F F P P P I B 9 A L G F F F A G J G I T J R E W W ..",
">.1.1.5.5.1.5.5.5.5.5.5.5.5.9.f t x A x F F G H m b b n x l l l l l l l b n x x x b b A B w Z F F n F b m m m m G F L J J W W I ",
"-.>.5.5.-.5.,.5.1.5.5.5.5.<.:.g t B b F F F n G b b b b b v k l l l v n x n v v v b A A A w A F b F n b b b b b G m G G P J J I ",
"-.5.-.>.5.-.-.1.-.1.-.1.5.5.5.f a A F x F F n m b b m b b b v c k v v v l v v v b v m b A u B F F F F b b m b b G G m G J J J R ",
"-.>.1.1.,.,.,.$.$.>.<.1.9.5.7.g i B n F H m m G n m G n m m m c l c c v c v v n b v n n x 0 B F F G m A F b x b b G H G G J J J ",
"-.:.-.-.-.,.,.,.-.>.>.5.5.5.5.g u B F F n m m n n n G G m m m b v v v b v b m b b n n n x w B F F P F A b F F F n n F G G J I J ",
"-.:.:.-.<.-.,.#.-.-.-.<.:.:.<.h s A F n H n n n m F G m m b m v v v b v v v b b v v n n x 9 B F A K P F F F F n F F n F G F I I ",
"< 9 r r y t t r t t t y y t i 7 , : > - = - & = & - : = - * & & & & ; * - * * * = & & & ; $ & & & & & & ; & + & & & + + + & & ; ",
"3 : , w e u u u u u u r u s u s h u a s a 0 t a s s s d f s u 9 u s s d y i y u s a s s s N s s i s s s s s g N s M V C 0 u S D ",
"<.p u P P ( I ) ` ..+.] ..E [ [ [ ....+.+...o.o...+...+.+.+.~ e _ #.$.$.$.$...$.$.$.$.O.@.$.O.$.X.@.$.O.O.O.O.O.@.@.@.#.a ! 9.8.",
"<.d r P H J L J I I I R I I L W E E ..I E ......W E ..I ' ' D 9 ) ..X.$.$.X...X.O.X...X.X.X.X.Q ..X...Q Q Q O.Q X.X.X...d ! 9.7.",
"<.d u K H K I I I W ..I E I I J W W W ..W ..W E E W E R I J B 8 ) ..o.O...W ......W ..X.W X.X.R Q W W W Q Q Q Q Q R ....s ! 9.3.",
";.d u I K K J I J R ' ..I ' ' ..........X.....W R X.R R I ) C 8 _ o...o.X.+.....W ......X.X.W W Q Q W R Q Q W Q R Q R ..i ~ 5.5.",
"<.d u I ) I W ) J ..' ' W ....X.....O.O.W W W ..X.' ' Q R ' B q { +.....' X...' W W W X.W X.Q ..W R W R Y R W W R ' ' ..r ~ 5.3.",
";.d d ) [ E R ..' ' ........+...+.X.$.....X.o.W ..R W W ' I Z q ` @.......X...R W ....X.O...W W Q X...R ' R W W X.X.R +.r ! 6.3.",
"<.d d +.+...+.................o.$.$.O.o.o.o...o.X.X.W W ..R Z 8 ` @...................X.X.X.....Q ....W ..R W R R ' X.' y C 5.>.",
"u % 2 1 1 3 5 4 3 4 1 > 4 4 5 5 5 5 5 5 3 3 1 5 3 1 1 1 1 1 , 2 < > - > > > > > = = = = = = & & = - = : - - & & & = & = X < 2 3 ",
"p d d t 6 0 r y r u s y y u u 2 $ p g g s g g g s g g s g g s D M s i s N N N M N s s z t + 3 y f i s s u y s s s s s s f Z N N ",
"( K P I P I I ) ' ' ) ) ) I I i 7 ( ' ....R ) J I E W I W I R ..R W W R R X.' X.....X.o.o.2 N +.@.@.@.X.X.....W W W R I R X.....",
"F H H F J F F L L P G L J P P i # P I J L J J J J Y W Y W R Y Y Y R R Y Y R R R W W Q X.{ 0 B ..W X.W W W R W W R J U U Y R R Y ",
"H F J L L F F I L H F K I H L u $ ) ..' J L J J J R W W Y R R R Y R R Y R R X.X.O.X.Q ..+.e Z ....W W R W Q Q Q R R Y Y Y U U U ",
"F L L L G F J F H F F H I J G s 7 ..R R T Y J J R W W W Q R W W Q Q R R R R Q X.Q X.X.X.+.p B ....X.Q W W Q W R W W Y Y U U U Y ",
"H H L I G G G G G F G J I I I s 9 I ' R R J J R W Q Q Q Q W Q X.Q X.Q Y Q R R X.Q Q X.$.+.d Z ..O.O.Q Q W W W W Q Y W Y U Y Y Y ",
"L J P I P P G L J F I I I E L y w ] ' R R R Y R W W W Q W X.X.X.X.Q Q R Q Q ' X.X.W X.X.@.d Z X.O.O.X.X.Q Q X.Q Q R Y Y Y Y R Y ",
"L G K I L L P L I P H I I P I a w ) I R I E Y W W W W W W W X.X.X.X.X.Q X.X.R X.X.X.W ..+.u C @.O.O.O.X.X.Q W W Q Q R Y Y R Y Y ",
"= : ; ; : ; & ; = + + = = = ; + , ; ; O = - - = > 1 > > 3 3 < : 4 - > > : : 4 5 1 2 3 3 8 8 2 3 5 5 3 3 1 > > 1 < 3 < - - - > < ",
"e @ u f g p i u t a a t s s a s V i s y s t a s u M N s s g 9 8 V N N N N f C C C g S N g h j g N N s s s N s s s N V d 7 f Z S ",
"~ 8 C L P ) I ) L H I L J J G G T P Y W I E E J E I W W W W a p +.@.@.$.+.@.+...+...+...W X.X.X...X...W ..W ..W R W ..` w *.7.7.",
"S q N F H G H F J G J G G m m m m G U U J J G U J R R R ..R f p ` +.$.........E ..X.' ..R X.W Q R W W R R I J R I R ..P e { 7.7.",
"D q B H m H F G G G G m m n m m m G G J J m G G m G Y W W ) f p ) ..+.$.........' ................' W R W R I I R W W I p { 3.3.",
"D q x F H n F F H G J G m m m m m m G G G m G G J J J R I I u p ....+.+.[ ....o.........X...W W W W R ' R W R W I I ..( q { 1.1.",
"C 7 N F F H F F G J J J J G m G G G U G U J G m J G J R ..I r u +.+.....o...X.+.+.+.......O.........W ....R I W W E ..) q { 1.-.",
"B , B H L J F n J J J G m G G m J J J J J G G J Y J R ....J u p +.+.+.X.+.$.+.$.+.......X.....o.........[ R R ........) 9 { ,.,.",
"C 8 Z L P F F F J J I G G G G G J J G G G J G J J W W I I ) u f +.+.+.+.o.+.+.+.....+.I ..o.+.o.+...+...E [ +.+.+.+.+.( 9 { 1.5.",
"# $ : ; ; = = & & & & & & & & = & & = = = = & : 3 1 1 3 3 < , , 2 < < : 3 3 3 3 3 2 1 : ; : , : : > : 2 > > : > - : & ; , 3 0 t ",
"0 a u t u y w 9 0 t 0 t r 0 0 < # u a t u t 0 0 a 0 a u u u u u s s u s u a a s s f g g a $ a a g f f s s s a s s s N V ! C C C "
};
