/* XPM */
static char *test21716367484[] = {
/* columns rows colors chars-per-pixel */
"64 64 85 1 ",
"  c #642D0E",
". c #682D0F",
"X c #67310F",
"o c #69310E",
"O c #662E10",
"+ c #682F11",
"@ c #663111",
"# c #6B3212",
"$ c #733615",
"% c #7A3A17",
"& c #753718",
"* c #783518",
"= c #753918",
"- c #7A3919",
"; c #823E1D",
": c #843F20",
"> c #86411E",
", c #8A431F",
"< c #874220",
"1 c #8C4322",
"2 c #8B4927",
"3 c #8B4629",
"4 c #8D4B2C",
"5 c #914625",
"6 c #954826",
"7 c #984827",
"8 c #964728",
"9 c #984729",
"0 c #954929",
"q c #9B4A2B",
"w c #8D4D32",
"e c #904F31",
"r c #9F4F30",
"t c #8E5236",
"y c #8C5338",
"u c #905235",
"i c #92553B",
"p c #92593D",
"a c #A14D2E",
"s c #A44E31",
"d c #A94F34",
"f c #A65132",
"g c #AC5335",
"h c #AE5438",
"j c #AF583C",
"k c #B15337",
"l c #B25539",
"z c #B1583B",
"x c #935B43",
"c c #935F49",
"v c #95634C",
"b c #9C624A",
"n c #956551",
"m c #996752",
"M c #956955",
"N c #9A6B57",
"B c #996E5D",
"V c #9C705C",
"C c #A86F5B",
"Z c #9A7462",
"A c #997867",
"S c #99776B",
"D c #9D7A6C",
"F c #9E7D72",
"G c #A07765",
"H c #A07B69",
"J c #A07E74",
"K c #B27E70",
"L c #9C8072",
"P c #A18274",
"I c #A3857A",
"U c #A4897E",
"Y c #A48C83",
"T c #A39187",
"R c #A4918B",
"E c #A89591",
"W c #A59A94",
"Q c #AB9D97",
"! c #A69B9E",
"~ c #AA9D9B",
"^ c #A89FA2",
"/ c #A7A7A7",
"( c #ABA5A4",
") c #ABA7A8",
"_ c #ABA9AC",
/* pixels */
"111,5511155:55,55111,,1,1,,1,,,1115151111,1; #<11,1,:5511:5:55:5",
"1111:5115:5::55;:57979877997511551:,111ecw1;.#11xc4111;5:5:55::,",
"1511:515,5;555:517dkkklkglkga111,51511,V!Z3- #1<E~v111115:5:7:5,",
"1111111::55:::5;18gkggglglgka1111:5;1,1Z!Z2: $11E~m11115555555:5",
"111111:5,5,,55:51155755555751111;1111113u41:X#11ut31117ggdggd5;5",
":115555555555:551511,,511111111151111511111<@#<1111,117kkkkkk,;5",
"515sddddddgfdkda5:511111111111115;51:511111;X#<11111:55777a77:5:",
"5,8lllllllkkkkka:5:1111,1111111155;5111,111>X#1111:55::5115:55,5",
"115qqqqqqq77qqqqfffffsgssdsssfa1::55111mUm1-.#1<PUx1111,6saaa511",
"11111111111,1119llllkkkklllllzg15,:,111S_A3< #11Q_m1:1117lllk711",
"5qaqqqqqq1111115raaafsfdddassss11155111vLv1: $<1HJi151118frss111",
"rllllllll51111111111,,1,1151,111115;1111121- #<11511111111,51111",
"0sssssssf1111111111111111111111111111111111:O@111,11111111111111",
"111111111111111111111111111,111111111111111:O#111111111111111111",
"<111,,>>,<,>1::1,><1:1,<1,;,,>1:;,,1:,1<<,<- #1:5;::;11,,:;11:>1",
"     .  X           O     ..              O      ...            ",
"O@@@#@+@.+#+@+@@@@@O X@@@@@@@+@@@@X.+@+@+@+++O++.+++++O@@+@@+@@+",
"111111111511111111<>@@-1<11111111111111111111<111111111111111<11",
"1,1111111:111111111<@@>11111111111111111111111111111111111111111",
"11,111115:11111xRD4<@X>1DRB1111111111agfgffgfa511111111111111111",
"11111111111111,v/Y4>@X;1Y(H1111111111fllkllhgf111111111515:51111",
"qgfffff51111111ecp1>XX;1ixu,5111111116677907871111qfgfgffdd:1111",
"sllllll111151111111>@O;1115;;55,1111,1111111111111allllllll51111",
"9rsrrss1,111:511111<@X;15;7aaaaaaaaqarrrqaa7,511117ssssqaaq51111",
"111111,,1:551111111:@@>111qllllllllllllllkkg,5,111111111,111,111",
"11115qaaaqaaq8111111@X;11,0srrsrasaaaklllllkaaaqaaaq511111111111",
"11117hllllkkk711111;XX>1111111111111,gllklkkklklkllkq11111111111",
"5577qlkddfsdd711151;XX;<1111111606607sggdgdkffgggfffq75866777571",
"alllhll51151115,111<@X;21111115lzgkkk7,155,511115111slllkklkgll0",
"qdddggd511311113xu1>@X;1ixu1112gfgggg5,,:55:11111111addkggkdgfg8",
"155555511111111c^Lw<@o>1U(Z111,1555551,15:1111511111:55151551551",
"11111;111111111m_Yw<oX;<Y_H111111111,1115:11111111111111,1:11111",
"1:11111111111112yw1>@@-1wue511,111111511111111111111111111111111",
"1311311111211<2<111>oX<133::11511111111111131131113:111113111311",
"**&$&&$$&&#$=&$$&=$$ O#&**$$$$*$$$&$$$$$$$=$$$$$&$*$$$*$*$$$#&&&",
"OO   O   O  O XXO    .O  O.  .        O    X                O  O",
"&%------=%%---------%%%%-*-----*%%-%-%%------$O =%%---*%--------",
"111111111111111111111111:11115,11,,,11111111:;  ,1<11111<1111<<1",
"1118q0777,1111111111111111111:1117qq77779icx1:+ :1ycw11,11111111",
"110llllll5,1111111111111111111115llllllllK(R5; O11I_N11111111111",
"115dggfgf5157q7797777511111111115ffgkgggfCUL5;+ ,<VTb76600977111",
"111111<<,1<fljllllhllj011111111111,,,,,112115;O <11<fzzlllllg511",
"55511501555ahhgglhgkhgq52561555155552,,11112::. <11,sggzhlllg655",
"qhhklhhjkgka5125555556fhgzggghhhhgkgk611111,:;. ,11,2552qlllkggg",
"qzgzhghzkkg7::55111115fglzgkkgggggkkg61114u21;O ,12e21116gkgkkgz",
"15555555775,55;;111111555555556555551,11,VWI1:O <<D~v,1115556555",
"111111115::55:511:11111111111111111111111Z)T4:  <1P)m111111111,1",
"111111115:5:555;551,111111111111111111111uvx1;O <1ivt11151111111",
"1,,1111:5:11111111111111111111111111111111111;. <1,<111111111111",
"$$$$#$$$$&$$$##$$$#$$$$#$#$$$$#$$$##$#&##$$$$# .$$$$$$&#&&=##&#=",
"      O       O    OO         X X  X@            XX   X      O@X",
"&$$$*$$&$$&*$$$&$$$=$$&$$$$$$$$ @#$$$$$$$$$$$$$$$&$$$&&$$$&$$==#",
"111111111111111111111,5,112111> @5111111111111111111111111111111",
"1111111111111115qq7qqqqa51yMx<> o11vm411111111111111116qqqqq7qq2",
"1111111111111110zzllllkl01Z_L<< @34R/x11111111111111117llzlllll0",
"1111111111515517lklzklkk71N~D<< o11YEx,551555155155155qlllghlhh0",
"11115:1,1jzllllhkg515,5:111111> @113111skklllzjzzzlljllld5,:5511",
"155755551hlllllhks5,115:11111,, #511111rkklkllklllllglkha1115::1",
"qhgdddkgg7808700a5551:55<1<111> o1111111a577666756q7668751115:51",
"ahklllkkh511:1115:::151,112111< o1111111:5:5,,1111:5111511515111",
"59897777755:111,15:5115111vRB<< @11FYu11:5::511111afffffskk::5:5",
"11115::5:;551111115:111111Z)F1: #13R/x,11155:1111,alllllkkk55::5",
"11115515555;1151:5:51:1111pAv<, o11NGe5111155:11119aaqaaaaa,:7:7",
"1,11:5::5;5:11115:55:511111111, @3111,1115:;5511111111,,,,5:5:5:"
};
