/* XPM */
static char *_6988b4d3910476e904e0b7f5fc549e9JGCKC8Rl9Yo2I8Di[] = {
/* columns rows colors chars-per-pixel */
"64 64 70 1 ",
"  c #010002",
". c #020003",
"X c #030104",
"o c #040205",
"O c #050306",
"+ c #060407",
"@ c #070508",
"# c #080609",
"$ c #09070A",
"% c #0A080B",
"& c #0B090C",
"* c #0C0A0D",
"= c #0D0B0E",
"- c #0E0C0F",
"; c #0F0D10",
": c #100E11",
"> c #110F12",
", c #121013",
"< c #141215",
"1 c #211F22",
"2 c #262427",
"3 c #272528",
"4 c #29272A",
"5 c #2B292C",
"6 c #2C2A2D",
"7 c #2D2B2E",
"8 c #2E2C2F",
"9 c #2F2D30",
"0 c #323033",
"q c #333134",
"w c #343235",
"e c #353336",
"r c #363437",
"t c #373538",
"y c #383639",
"u c #39373A",
"i c #3A383B",
"p c #585659",
"a c #949295",
"s c #959396",
"d c #9F9DA0",
"f c #A09EA1",
"g c #A3A1A4",
"h c #A5A3A6",
"j c #A6A4A7",
"k c #A7A5A8",
"l c #A8A6A9",
"z c #A9A7AA",
"x c #ABA9AC",
"c c #ACAAAD",
"v c #AFADB0",
"b c #B0AEB1",
"n c #B1AFB2",
"m c #B2B0B3",
"M c #B4B2B5",
"N c #B6B4B7",
"B c #B7B5B8",
"V c #E4E2E5",
"C c #F0EEF1",
"Z c #F3F1F4",
"A c #F4F2F5",
"S c #F7F5F8",
"D c #F8F6F9",
"F c #FAF8FB",
"G c #FBF9FC",
"H c #FCFAFD",
"J c #FDFBFE",
"K c #FEFCFF",
"L c #FFFDFF",
"P c #FFFEFF",
/* pixels */
"PAPFHPPHPPPPPPPPPPPPPPPPPPPPPPPPPPPPPPPPPPPPPPPPPPPPPPPPPPHPHPCP",
"Cp61te8e666666666666666666666666666666666666666666666666348036ud",
"Pt  #  +OOOOOOOOOOOOOOOOOOOOOOOOOOOOOOOOOOOOOOOOOOOOOOOO O+#  -m",
"Z5#;X X                                                 @+  @  k",
"P6 + @> OOOOOOOOOOOOOOOOOOOOOOOOOOOOOOOOOOOOOOOOOOOOOOOOX@  >> z",
"P2 O  O OOOOOOOOOOOOOOOOOOOOOOOOOOOOOOOOOOOOOOOOOOOOOOOO += X= b",
"H9@<= @>OOOOOOOOOOOOOOOOOOOOOOOOOOOOOOOOOOOOOOOOOOOOOOOO  ,    b",
"Dr    O XXXXXXXXXXXXXXXXXXXXXXXXXXXXXXXXXXXXXXXXXXXXXXXX# -##& b",
"P5O  +XXXXXXXXXXXXXXXXXXXXXXXXXXXXXXXXXXXXXXXXXXXXXXXXXXXOO +  c",
"P5O  +XXXXXXXXXXXXXXXXXXXXXXXXXXXXXXXXXXXXXXXXXXXXXXXXXXXOO +  c",
"P5O  +XXXXXXXXXXXXXXXXXXXXXXXXXXXXXXXXXXXXXXXXXXXXXXXXXXXOO +  c",
"P5O  +XXXXXXXXXXXXXXXXXXXXXXXXXXXXXXXXXXXXXXXXXXXXXXXXXXXOO +  c",
"P5O  +XXXXXXXXXXXXXXXXXXXXXXXXXXXXXXXXXXXXXXXXXXXXXXXXXXXOO +  c",
"P5O  +XXXXXXXXXXXXXXXXXXXXXXXXXXXXXXXXXXXXXXXXXXXXXXXXXXXOO +  c",
"P5O  +XXXXXXXXXXXXXXXXXXXXXXXXXXXXXXXXXXXXXXXXXXXXXXXXXXXOO +  c",
"P5O  +XXXXXXXXXXXXXXXXXXXXXXXXXXXXXXXXXXXXXXXXXXXXXXXXXXXOO +  c",
"P5O  +XXXXXXXXXXXXXXXXXXXXXXXXXXXXXXXXXXXXXXXXXXXXXXXXXXXOO +  c",
"P5O  +XXXXXXXXXXXXXXXXXXXXXXXXXXXXXXXXXXXXXXXXXXXXXXXXXXXOO +  c",
"P5O  +XXXXXXXXXXXXXXXXXXXXXXXXXXXXXXXXXXXXXXXXXXXXXXXXXXXOO +  c",
"P5O  +XXXXXXXXXXXXXXXXXXXXXXXXXXXXXXXXXXXXXXXXXXXXXXXXXXXOO +  c",
"P5O  +XXXXXXXXXXXXXXXXXXXXXXXXXXXXXXXXXXXXXXXXXXXXXXXXXXXOO +  c",
"P5O  +XXXXXXXXXXXXXXXXXXXXXXXXXXXXXXXXXXXXXXXXXXXXXXXXXXXOO +  c",
"P5O  +XXXXXXXXXXXXXXXXXXXXXXXXXXXXXXXXXXXXXXXXXXXXXXXXXXXOO +  c",
"P5O  +XXXXXXXXXXXXXXXXXXXXXXXXXXXXXXXXXXXXXXXXXXXXXXXXXXXOO +  c",
"P5O  +XXXXXXXXXXXXXXXXXXXXXXXXXXXXXXXXXXXXXXXXXXXXXXXXXXXOO +  c",
"P5O  +XXXXXXXXXXXXXXXXXXXXXXXXXXXXXXXXXXXXXXXXXXXXXXXXXXXOO +  c",
"P5O  +XXXXXXXXXXXXXXXXXXXXXXXXXXXXXXXXXXXXXXXXXXXXXXXXXXXOO +  c",
"P5O  +XXXXXXXXXXXXXXXXXXXXXXXXXXXXXXXXXXXXXXXXXXXXXXXXXXXOO +  c",
"P5O  +XXXXXXXXXXXXXXXXXXXXXXXXXXXXXXXXXXXXXXXXXXXXXXXXXXXOO +  c",
"P5O  +XXXXXXXXXXXXXXXXXXXXXXXXXXXXXXXXXXXXXXXXXXXXXXXXXXXOO +  c",
"P5O  +XXXXXXXXXXXXXXXXXXXXXXXXXXXXXXXXXXXXXXXXXXXXXXXXXXXOO +  c",
"P5O  +XXXXXXXXXXXXXXXXXXXXXXXXXXXXXXXXXXXXXXXXXXXXXXXXXXXOO +  c",
"P5O  +XXXXXXXXXXXXXXXXXXXXXXXXXXXXXXXXXXXXXXXXXXXXXXXXXXXOO +  c",
"P5O  +XXXXXXXXXXXXXXXXXXXXXXXXXXXXXXXXXXXXXXXXXXXXXXXXXXXOO +  c",
"P5O  +XXXXXXXXXXXXXXXXXXXXXXXXXXXXXXXXXXXXXXXXXXXXXXXXXXXOO +  c",
"P5O  +XXXXXXXXXXXXXXXXXXXXXXXXXXXXXXXXXXXXXXXXXXXXXXXXXXXOO +  c",
"P5O  +XXXXXXXXXXXXXXXXXXXXXXXXXXXXXXXXXXXXXXXXXXXXXXXXXXXOO +  c",
"P5O  +XXXXXXXXXXXXXXXXXXXXXXXXXXXXXXXXXXXXXXXXXXXXXXXXXXXOO +  c",
"P5O  +XXXXXXXXXXXXXXXXXXXXXXXXXXXXXXXXXXXXXXXXXXXXXXXXXXXOO +  c",
"P5O  +XXXXXXXXXXXXXXXXXXXXXXXXXXXXXXXXXXXXXXXXXXXXXXXXXXXOO +  c",
"P5O  +XXXXXXXXXXXXXXXXXXXXXXXXXXXXXXXXXXXXXXXXXXXXXXXXXXXOO +  c",
"P5O  +XXXXXXXXXXXXXXXXXXXXXXXXXXXXXXXXXXXXXXXXXXXXXXXXXXXOO +  c",
"P5O  +XXXXXXXXXXXXXXXXXXXXXXXXXXXXXXXXXXXXXXXXXXXXXXXXXXXOO +  c",
"P5O  +XXXXXXXXXXXXXXXXXXXXXXXXXXXXXXXXXXXXXXXXXXXXXXXXXXXOO +  c",
"P5O  +XXXXXXXXXXXXXXXXXXXXXXXXXXXXXXXXXXXXXXXXXXXXXXXXXXXOO +  c",
"P5O  +XXXXXXXXXXXXXXXXXXXXXXXXXXXXXXXXXXXXXXXXXXXXXXXXXXXOO +  c",
"P5O  +XXXXXXXXXXXXXXXXXXXXXXXXXXXXXXXXXXXXXXXXXXXXXXXXXXXOO +  c",
"P5O  +XXXXXXXXXXXXXXXXXXXXXXXXXXXXXXXXXXXXXXXXXXXXXXXXXXXOO +  c",
"P5O  +XXXXXXXXXXXXXXXXXXXXXXXXXXXXXXXXXXXXXXXXXXXXXXXXXXXOO +  c",
"P5O  +XXXXXXXXXXXXXXXXXXXXXXXXXXXXXXXXXXXXXXXXXXXXXXXXXXXOO +  c",
"P5O  +XXXXXXXXXXXXXXXXXXXXXXXXXXXXXXXXXXXXXXXXXXXXXXXXXXXOO +  c",
"P5O  +XXXXXXXXXXXXXXXXXXXXXXXXXXXXXXXXXXXXXXXXXXXXXXXXXXXOO +  c",
"P5O  +XXXXXXXXXXXXXXXXXXXXXXXXXXXXXXXXXXXXXXXXXXXXXXXXXXXOO +  c",
"P5O  +XXXXXXXXXXXXXXXXXXXXXXXXXXXXXXXXXXXXXXXXXXXXXXXXXXXOO +  c",
"P5O  +XXXXXXXXXXXXXXXXXXXXXXXXXXXXXXXXXXXXXXXXXXXXXXXXXXXOO +  c",
"P5O  +XXXXXXXXXXXXXXXXXXXXXXXXXXXXXXXXXXXXXXXXXXXXXXXXXXXOO +  c",
"Pq X@  =                                                    X Oc",
"D9 O;+  XXXXXXXXXXXXXXXXXXXXXXXXXXXXXXXXXXXXXXXXXXXXXXXX#OO   +h",
"PiO +XO OOOOOOOOOOOOOOOOOOOOOOOOOOOOOOOOOOOOOOOOOOOOOOOO  @  #&j",
"DeO   +>OOOOOOOOOOOOOOOOOOOOOOOOOOOOOOOOOOOOOOOOOOOOOOOO  ++O +z",
"S4 @-  %XXXXXXXXXXXXXXXXXXXXXXXXXXXXXXXXXXXXXXXXXXXXXXXX# +%O  b",
"Pu  %X                                                  =     +N",
"Vq#  O%XOOOOOOOOOOOOOOOOOOOOOOOOOOOOOOOOOOOOOOOOOOOOOOOOO   O-@a",
"PgMvgzmhzzzzzzzzzzzzzzzzzzzzzzzzzzzzzzzzzzzzzzzzzzzzzzzzhbbfxBaG"
};
