/* XPM */
static char *_4ef3fd7a42f4bb3ac70824f4a24bc9638D3p6U7HMzOxg2N[] = {
/* columns rows colors chars-per-pixel */
"10 10 11 1 ",
"  c #F4F4F4",
". c #F6F6F6",
"X c gray97",
"o c #F8F8F8",
"O c #F9F9F9",
"+ c gray98",
"@ c #FBFBFB",
"# c gray99",
"$ c #FDFDFD",
"% c #FEFEFE",
"& c white",
/* pixels */
"  OOO OO  ",
"O########O",
"##########",
"O#########",
"O########O",
"##########",
"##########",
"O#########",
"O#########",
" O###OOO#O"
};
