/* XPM */
static char *affa9ef2691242cba3ab3e27c7488ed7cBO3IA6LD5w4mX7s[] = {
/* columns rows colors chars-per-pixel */
"64 64 31 1 ",
"  c gray68",
". c #B6B6B6",
"X c #B7B7B7",
"o c gray75",
"O c #D0D0D0",
"+ c LightGray",
"@ c gray83",
"# c #D5D5D5",
"$ c gray84",
"% c #D7D7D7",
"& c #D8D8D8",
"* c gray85",
"= c #DADADA",
"- c gray86",
"; c gainsboro",
": c #DDDDDD",
"> c gray87",
", c #DFDFDF",
"< c gray88",
"1 c #E1E1E1",
"2 c #E2E2E2",
"3 c gray89",
"4 c gray97",
"5 c #F8F8F8",
"6 c #F9F9F9",
"7 c gray98",
"8 c #FBFBFB",
"9 c gray99",
"0 c #FDFDFD",
"q c #FEFEFE",
"w c white",
/* pixels */
" ++%-%>->>>>>>>>>>>>>>><>>>>>>>>--->------------%%%%%%%%%-+%%%%X",
"%00000000000000000000000000000000000000000000000000000000080000>",
"-00000000000000000000000000000000000000000000000000000000080000<",
"-00000080000000000000000000000000000000000000000000000000080000>",
">00000000000000000000000000000000000000000000000000000000080000<",
"-00008088800000000000000000088880000000088000888000000000040000>",
">000000000000000000000000000000000000000000000000000000000000003",
"%00008080000000000000000000000000000000000000000000000000040080>",
">00008000000000000000000000000000000000000000000000000000000000<",
">00008000000000000000000000000000000000000000000000000000000000<",
">00008000000000000000000000000000000000000000000000000000000000<",
">00008000000000000000000000000000000000000000000000000000000000<",
">00008000000000000000000000000000000000000000000000000000000000<",
">00008000000000000000000000000000000000000000000000000000000000<",
">00008000000000000000000000000000000000000000000000000000080000<",
">00008000000000000000000000000000000000000000000000000000000000<",
"<00000000000000000000000000000000000000000000000000000000000000<",
"<00008000000000000000000000000000000000000000000000000000000000<",
"<00000000000000000000000000000000000000000000000000000000000000<",
"<00000000000000000000000000000000000000000000000000000000000000<",
"<00000000000000000000000000000000000000000000000000000000080000<",
"<00000000000000000000000000000000000000000000000000000000080000<",
"<00000000000000000000000000000000000000000000000000000000000000<",
"<00000000000000000000000000000000000000000000000000000000000000<",
">00008000000000000000000000000000000000000000000000000000080000<",
">00008000000000000000000000000000000000000000000000000000080000<",
">00008000000000000000000000000000000000000000000000000000080000<",
">00008000000000000000000000000000000000000000000000000000000000<",
">00008000000000000000000000000000000000000000000000000000000000<",
">00008000000000000000000000000000000000000000000000000000000000<",
">00008000000000000000000000000000000000000000000000000000000000<",
">00008000000000000000000000000000000000000000000000000000080000<",
"-00000000000000000000000000000000000000000000000000000000000000<",
"-00000000000000000000000000000000000000000000000000000000000000<",
"-00000000000000000000000000000000000000000000000000000000000000<",
"-00000000000000000000000000000000000000000000000000000000000000<",
"-00000000000000000000000000000000000000000000000000000000000000<",
">00000000000000000000000000000000000000000000000000000000000000<",
">00000000000000000000000000000000000000000000000000000000080000<",
"-00000000000000000000000000000000000000000000000000000000000000<",
"-00000000000000000000000000000000000000000000000000000000000000<",
"-00000000000000000000000000000000000000000000000000000000000000<",
"-00000000000000000000000000000000000000000000000000000000000000<",
"-00000000000000000000000000000000000000000000000000000000000000<",
"-00000000000000000000000000000000000000000000000000000000080000<",
"-00000000000000000000000000000000000000000000000000000000080000<",
"-00000000000000000000000000000000000000000000000000000000000000<",
"-00000000000000000000000000000000000000000000000000000000000000<",
"%00000000000000000000000000000000000000000000000000000000080000<",
"-00000000000000000000000000000000000000000000000000000000080000<",
"%00000000000000000000000000000000000000000000000000000000080000<",
"%00000000000000000000000000000000000000000000000000000000000000<",
"%00000000000000000000000000000000000000000000000000000000000000<",
"%00000000000000000000000000000000000000000000000000000000000000<",
"%00000000000000000000000000000000000000000000000000000000080000<",
"-00000000000000000000000000000000000000000000000000000000080000<",
"%00008080000000000000000000000000000000000000000000000000080000>",
"-00000000000000000000000000000000000000000000000000000000000000<",
"%80008080000000000000000000000000000000000000000000000008080000>",
"-00000000000000000000000000000000000000000000000000000000000000<",
"%00008080000000000000000000000000000000000000000000000000080000>",
"%00008080000000000000000000000000000000000000000000000000080000>",
"-00000000000000000000000000000000000000000000000000000000000000<",
"X><><><>>>><<<>>>>><<<>>>>><<<>>>>><<<>>>>><<<>>>>><<<>>><><<><o"
};
